<svg xmlns="http://www.w3.org/2000/svg">
<defs>
<font id="GoboldBold" horiz-adv-x="1053" >
  <font-face 
    font-family="Gobold Bold"
    font-weight="400"
    font-stretch="normal"
    units-per-em="2048"
    panose-1="2 0 5 0 0 0 0 0 0 0"
    ascent="1638"
    descent="-410"
    x-height="1749"
    cap-height="1982"
    bbox="-283 -370 2269 2314"
    underline-thickness="150"
    underline-position="-142"
    unicode-range="U+0020-U+F002"
  />
<missing-glyph horiz-adv-x="1984" 
d="M100 1729v-216.002c54 66 125.333 102.667 214 110c10.667 0.666992 21 1 31 1c42 0 77.667 -7.66699 107 -23c26.667 -14 45.667 -35.667 57 -65c6 -14.667 9 -29 9 -43c0 -14.667 -3.33301 -29.334 -10 -44.001c-13.333 -27.333 -32.333 -41 -57 -41h-2
c-24 0 -36 11.667 -36 35c0 9.33301 4 18 12 26c7.33301 6.66699 15.333 10 24 10c10.667 0 19.667 -4.33301 27 -13c-0.666992 33.333 -14.667 56 -42 68c-14 6 -30 9 -48 9c-11.333 0 -23.666 -1.33301 -36.999 -4c-52.667 -9.33301 -93.667 -39.666 -123 -90.999
c-20.667 -37.333 -31 -77.666 -31 -120.999c0 -12 0.666992 -24 2 -36c7.33301 -49.333 30 -87.666 68 -114.999c34 -24.667 75.333 -37 124 -37c60 0 117.333 22 172 66c33.333 26.667 76.666 73 129.999 139c17.333 22 46 63.333 86 124c36 54 64.667 93 86 117
c63.333 70 145.333 118 246 144h-1009zM100 908.998h784v-41l-45 -24v-848h239c-79.333 25.333 -134.333 71 -165 137c-19.333 41.333 -29 88.666 -29 141.999c0 32.667 3.66699 67.667 11 105c27.333 134.667 119 288.667 275 462h-192l106 106c22 -26 49.667 -39 83 -39
h66c166.667 172 258.334 268.667 275.001 290c86.667 113.333 135.334 236.333 146.001 369c-85.333 -79.333 -177.333 -133.666 -276 -162.999c-50 -14.667 -99.667 -22 -149 -22c-74.667 0 -148.334 16.667 -221.001 50c-24.667 11.333 -49.334 17 -74.001 17
c-45.333 0 -90 -20.333 -134 -61c-16.667 -15.333 -46.334 -46.666 -89.001 -93.999c-47.333 -52.667 -84.333 -92.334 -111 -119.001c-97.333 -96.667 -181.666 -148 -252.999 -154c-13.333 -1.33301 -26 -2 -38 -2c-87.333 0 -157 26.667 -209 80v-191zM100 841.998v-846

<glyph glyph-name=".notdef" horiz-adv-x="1984" 
d="M100 1729v-216.002c54 66 125.333 102.667 214 110c10.667 0.666992 21 1 31 1c42 0 77.667 -7.66699 107 -23c26.667 -14 45.667 -35.667 57 -65c6 -14.667 9 -29 9 -43c0 -14.667 -3.33301 -29.334 -10 -44.001c-13.333 -27.333 -32.333 -41 -57 -41h-2
c-24 0 -36 11.667 -36 35c0 9.33301 4 18 12 26c7.33301 6.66699 15.333 10 24 10c10.667 0 19.667 -4.33301 27 -13c-0.666992 33.333 -14.667 56 -42 68c-14 6 -30 9 -48 9c-11.333 0 -23.666 -1.33301 -36.999 -4c-52.667 -9.33301 -93.667 -39.666 -123 -90.999
c-20.667 -37.333 -31 -77.666 -31 -120.999c0 -12 0.666992 -24 2 -36c7.33301 -49.333 30 -87.666 68 -114.999c34 -24.667 75.333 -37 124 -37c60 0 117.333 22 172 66c33.333 26.667 76.666 73 129.999 139c17.333 22 46 63.333 86 124c36 54 64.667 93 86 117
c63.333 70 145.333 118 246 144h-1009zM100 908.998h784v-41l-45 -24v-848h239c-79.333 25.333 -134.333 71 -165 137c-19.333 41.333 -29 88.666 -29 141.999c0 32.667 3.66699 67.667 11 105c27.333 134.667 119 288.667 275 462h-192l106 106c22 -26 49.667 -39 83 -39
h66c166.667 172 258.334 268.667 275.001 290c86.667 113.333 135.334 236.333 146.001 369c-85.333 -79.333 -177.333 -133.666 -276 -162.999c-50 -14.667 -99.667 -22 -149 -22c-74.667 0 -148.334 16.667 -221.001 50c-24.667 11.333 -49.334 17 -74.001 17
c-45.333 0 -90 -20.333 -134 -61c-16.667 -15.333 -46.334 -46.666 -89.001 -93.999c-47.333 -52.667 -84.333 -92.334 -111 -119.001c-97.333 -96.667 -181.666 -148 -252.999 -154c-13.333 -1.33301 -26 -2 -38 -2c-87.333 0 -157 26.667 -209 80v-191zM100 841.998v-846
h459v675c0 62 -13.333 106 -40 132c-26 26 -70 39 -132 39h-287zM629 -4.00195h44v848h-44v-848zM1834 -4.00195v203c-110 -97.333 -248.333 -165 -415 -203h415zM1834 783.998l-73.001 0.000976562v58h-186c-22 -32 -58 -79.667 -108 -143
c-105.333 -135.333 -168.666 -251.666 -189.999 -348.999c-5.33301 -24 -8 -46.333 -8 -67c0 -54.667 18.333 -97.334 55 -128.001c37.333 -31.333 89 -47 155 -47c18 0 36.667 1 56 3c93.333 11.333 193 46.666 299 105.999v567zM1834 908.999v794
c-74 -22.667 -113.667 -54.667 -119 -96c2 0.666992 9.33301 -52.333 22 -159c4 -36 6 -71.333 6 -106c0 -154.667 -41 -299 -123 -433h214zM840.999 1248c-34 -8 -53.666 -24.667 -58.999 -50c-1.33301 -4.66699 -2 -9 -2 -13c0 -20.667 12 -39.667 36 -57
c28.667 -20.667 43 -45.667 43 -75c0 -10 -2 -21 -6 -33c-14 -44 -45 -68.667 -93 -74c-6.66699 -0.666992 -13.334 -1 -20.001 -1c-39.333 0 -69.333 14 -90 42c-16.667 21.333 -25 47 -25 77c0 10.667 1 21.667 3 33c8 45.333 29.333 83.333 64 114
c40 34.667 89.667 52 149 52v-15z" />
    <glyph glyph-name="space" unicode=" " horiz-adv-x="508" 
 />
    <glyph glyph-name="space" unicode="&#xa0;" horiz-adv-x="508" 
 />
    <glyph glyph-name="exclam" unicode="!" horiz-adv-x="616" 
d="M495 1982l-21 -1472h-333l-21 1472h375zM120 345h375v-365h-375v365z" />
    <glyph glyph-name="quotedbl" unicode="&#x22;" horiz-adv-x="1020" 
d="M552 1983h348l-36 -692h-276zM120 1983h348l-36 -692h-276z" />
    <glyph glyph-name="numbersign" unicode="#" horiz-adv-x="1399" 
d="M288 903l43 217h-209v193h248l133 670h287l-133 -670h195l133 670h287l-133 -670h180v-193h-219l-43 -217h220v-193h-259l-145 -730h-287l145 730h-195l-145 -730h-287l145 730h-169v193h208zM618 1120l-43 -217h195l43 217h-195z" />
    <glyph glyph-name="dollar" unicode="$" horiz-adv-x="1103" 
d="M120 1613c0 249.333 96.667 389.331 290 419.998v180h282v-180c194 -30.667 291 -170.667 291 -420v-284h-334v284c0 74.667 -32.333 112.334 -97 113.001h-2c-64.667 0 -97 -37.667 -97 -113v-178c0 -82 85 -183.667 255 -305c183.333 -130.667 275 -287 275 -469v-248
c0 -250 -97 -390 -291 -420v-243h-282v243c-193.333 30.667 -290 170.667 -290 420v283h333v-283c0 -75.333 32.667 -113 98 -113s98 37.667 98 113v223c0 89.333 -85 195 -255 317c-182.667 130.667 -274 289.334 -274 476.001v184z" />
    <glyph glyph-name="percent" unicode="%" horiz-adv-x="1747" 
d="M652 1079c0 -174.667 -87.667 -262 -263 -262c-176 0 -264 87.333 -264 262v704c0 174.667 88 262 264 262c175.333 0 263 -87.333 263 -262v-704zM1622 243c0 -174.667 -88 -262 -264 -262h-2c-174 0 -261 87.333 -261 262v704c0 174.667 87.667 262 263 262
c176 0 264 -87.333 264 -262v-704zM1406 947c0 38.667 -15.667 58 -47 58h-2c-30.667 0 -46 -19.333 -46 -58v-704c0 -38.667 15.667 -58 47 -58c32 0 48 19.333 48 58v704zM1339 1983l-736 -2003h-228l737 2003h227zM436 1783c0 38.667 -15.667 58 -47 58h-2
c-30.667 0 -46 -19.333 -46 -58v-704c0 -38.667 16 -58 48 -58c31.333 0 47 19.333 47 58v704z" />
    <glyph glyph-name="ampersand" unicode="&#x26;" horiz-adv-x="1233" 
d="M484 308c12 -6 33.667 -9 65 -9c7.33301 0 15.333 0.333008 24 1c51.333 2 77 39.667 77 113v440h-98c-14 -0.666992 -26 -3 -36 -7c-42 -16 -63 -51.333 -63 -106v-327c0 -62 10.333 -97 31 -105zM650 1172v134.004h333v-134h180v-319h-180v-440
c0 -276.667 -123 -420.334 -369 -431.001c-23.333 -0.666992 -45.333 -1 -66 -1c-42 0 -78.333 1.66699 -109 5c-212.667 25.333 -319 167.666 -319 426.999v327c0 136 44.667 227 134 273c-89.333 46 -134 137 -134 273v295c0 267.333 113.333 410.666 340 429.999
c29.333 2 59.333 3 90 3c26 0 52.667 -0.666992 80 -2c235.333 -16 353 -159.667 353 -431v-104h-333v104c0 69.333 -16.667 106.333 -50 111c-14 2.66699 -29.333 4 -46 4c-14 0 -29 -1 -45 -3c-37.333 -4 -56 -41.333 -56 -112v-295c0 -54.667 21 -90.334 63 -107.001
c10 -4 22 -6.33301 36 -7h98z" />
    <glyph glyph-name="quotesingle" unicode="'" horiz-adv-x="588" 
d="M120 1983h348l-36 -692h-276z" />
    <glyph glyph-name="parenleft" unicode="(" horiz-adv-x="594" 
d="M564 -267c-296 3.33301 -444 147.667 -444 433v1632c0 284.667 148 428.667 444 432v-271c-74 -2 -111 -40.333 -111 -115v-1725c0 -74 37 -112 111 -114v-272z" />
    <glyph glyph-name="parenright" unicode=")" horiz-adv-x="594" 
d="M30 5c74 2 111 39.999 111 113.999v1725c0 74.667 -37 113 -111 115v271c296 -3.33301 444 -147.333 444 -432v-1632c0 -285.333 -148 -429.666 -444 -432.999v272z" />
    <glyph glyph-name="asterisk" unicode="*" horiz-adv-x="1062" 
d="M680 1877c-6 -34 -9.00293 -54.334 -9.00293 -61.001v-2l1 1v-1c4 0 24.333 8.33301 61 25c25.333 12.667 49.666 19 72.999 19c57.333 0 98.333 -36.667 123 -110c8.66699 -26 13 -49.333 13 -70c0 -65.333 -40.333 -104 -121 -116c-12 -1.33301 -25.667 -2 -41 -2
c-33.333 0 -50 -1 -50 -3c0 -1.33301 3.33301 -2.66602 10 -3.99902c14.667 -6.66699 38 -27.334 70 -62.001c28.667 -30 43 -60.333 43 -91c0 -40 -24 -77.667 -72 -113c-38 -28 -73.667 -42 -107 -42c-48 0 -85.667 28 -113 84c-14.667 29.333 -24 44 -28 44
c-0.666992 0 -1 -1.66699 -1 -5v-3c0 2 -0.333008 3 -1 3c-3.33301 0 -13.666 -15.333 -30.999 -46c-28 -50.667 -65.333 -76 -112 -76c-31.333 0 -65.666 13 -102.999 39c-50.667 36 -76 73.667 -76 113c0 32 16.667 64 50 96c34.667 35.333 54 53.666 58 54.999
c9.33301 2 14 3.66699 14 5c0 2 -15.667 3 -47 3c-20 0 -37 1.66699 -51 5c-75.333 14 -113 53 -113 117c0 19.333 4 41.333 12 66c22.667 74.667 63.334 112 122.001 112c24.667 0 51.667 -7.33301 81 -22c30.667 -16 48.334 -24 53.001 -24c0.666992 0 1 0.333008 1 1
s-0.666992 1.66699 -2 3c0 -0.666992 -2.66699 22 -8 68c-0.666992 8.66699 -1 17 -1 25c0 82.667 50.333 124.334 151 125.001h4c100 0 150 -39.667 150 -119c0 -11.333 -1 -23.666 -3 -36.999z" />
    <glyph glyph-name="plus" unicode="+" horiz-adv-x="1097" 
d="M408 845h-288v273h288v287h282v-287h287v-273h-287v-287h-282v287z" />
    <glyph glyph-name="comma" unicode="," horiz-adv-x="641" 
d="M120 345h401v-309l-113 -383h-232l58 327h-114v365z" />
    <glyph glyph-name="hyphen" unicode="-" horiz-adv-x="836" 
d="M50 821v273h736v-273h-736z" />
    <glyph glyph-name="hyphen" unicode="&#xad;" horiz-adv-x="836" 
d="M50 821v273h736v-273h-736z" />
    <glyph glyph-name="period" unicode="." horiz-adv-x="615" 
d="M120 345h375v-365h-375v365z" />
    <glyph glyph-name="slash" unicode="/" horiz-adv-x="807" 
d="M746 1983l-399 -2003h-287l399 2003h287z" />
    <glyph glyph-name="zero" unicode="0" horiz-adv-x="1103" 
d="M983 381c0 -288 -144 -432 -432 -432c-287.333 0 -431 144 -431 432v1200c0 288.667 143.667 433 431 433c288 0 432 -144.333 432 -433v-1200zM650 1581c0 75.333 -32.667 113 -98 113h-2c-64.667 0 -97 -37.667 -97 -113v-1200c0 -75.333 32.667 -113 98 -113
c66 0 99 37.667 99 113v1200z" />
    <glyph glyph-name="one" unicode="1" horiz-adv-x="1123" 
d="M728 1982v-1683h265v-319h-863v319h265v1364h-265v319h598z" />
    <glyph glyph-name="two" unicode="2" horiz-adv-x="1123" 
d="M130 421c0 182.667 90.999 339 272.999 469c170.667 122 256.334 224 257.001 306v385c0 75.333 -32.333 113 -97 113h-2c-65.333 0 -98 -37.667 -98 -113v-283h-333v283c0 288.667 143.667 433 431 433c288 0 432 -144.333 432 -433v-392
c0 -186 -91.333 -344.333 -274 -475c-170.667 -122 -256 -227.667 -256 -317v-98h530v-319h-863v441z" />
    <glyph glyph-name="three" unicode="3" horiz-adv-x="1123" 
d="M663 739c0 63.333 -10.666 99.6699 -31.999 109.003c-12 5.33301 -32.667 8 -62 8h-121v319h143c21.333 0 36.666 2.66699 45.999 8c17.333 10 26 44.667 26 104v292c0 63.333 -10.667 99.666 -32 108.999c-12 5.33301 -33.667 8 -65 8
c-8.66699 0 -17.667 -0.333008 -27 -1c-52.667 -2 -79 -40.667 -79 -116v-281h-330v283c0 196.667 59 325.334 177 386.001c80.667 42 163.667 63 249 63c78.667 0 159 -18 241 -54c130.667 -56.667 196 -188.334 196 -395.001v-296c0 -136 -44.667 -227 -134 -273
c89.333 -46 134 -137 134 -273v-357c0 -176.667 -47 -298.334 -141 -365.001c-60.667 -42.667 -152.667 -65.334 -276 -68.001h-24c-109.333 0 -195 18 -257 54c-110 62.667 -165 189 -165 379v283h330v-284c0 -78 33.667 -117 101 -117c68 0 102 39 102 117v358z" />
    <glyph glyph-name="four" unicode="4" horiz-adv-x="1123" 
d="M959 1982v-1202h109v-319h-109v-481h-333v481h-574v271l503 1250h404zM390 780h236v599z" />
    <glyph glyph-name="five" unicode="5" horiz-adv-x="1124" 
d="M661 381l-0.000976562 556.998c0 61.333 -10.333 96.333 -31 105c-12 6 -33.667 9 -65 9c-8 0 -16.333 -0.333008 -25 -1c-43.333 -2 -67.666 -21.333 -72.999 -58l-4 -98h-333l44 1087h820v-319h-500l-16 -335c20.667 24 76.667 36 168 36
c12.667 0 25.334 -0.666992 38.001 -2c106.667 -9.33301 188 -52.333 244 -129c44 -60.667 66 -159 66 -295v-557c0 -259.333 -106.667 -401.666 -320 -426.999c-30.667 -3.33301 -66.667 -5 -108 -5c-20.667 0 -42.667 0.333008 -66 1
c-246 10.667 -369 154.334 -369 431.001v252h333v-252c0 -73.333 25 -111 75 -113h19c35.333 0 59.666 2.66699 72.999 8c20 8.66699 30 43.667 30 105z" />
    <glyph glyph-name="six" unicode="6" horiz-adv-x="1123" 
d="M463 1156c28.667 26 85.333 39.001 170 39.001c14.667 0 30 -0.666992 46 -2c98 -10 174.667 -45 230 -105c56 -60.667 84 -166.334 84 -317.001v-390c0 -288 -144 -432 -432 -432c-287.333 0 -431 144 -431 432v1200c0 288.667 143.667 433 431 433
c288 0 432 -144.333 432 -433v-283h-333v283c0 75.333 -32.667 113 -98 113h-2c-64.667 0 -97 -37.667 -97 -113v-425zM659.999 771.001c0 62 -10.333 97 -31 105c-12 6 -33.667 9 -65 9c-8 0 -16.333 -0.333008 -25 -1c-50.667 -2 -76 -39.667 -76 -113v-390
c0 -75.333 32.667 -113 98 -113c66 0 99 37.667 99 113v390z" />
    <glyph glyph-name="seven" unicode="7" horiz-adv-x="1123" 
d="M121 1663v319h887v-223l-400 -1779h-341l378 1683h-524z" />
    <glyph glyph-name="eight" unicode="8" horiz-adv-x="1123" 
d="M663 739c0 63.333 -10.667 99.667 -32 109c-12 5.33301 -33.667 8 -65 8c-8.66699 0 -17.667 -0.333008 -27 -1c-52.667 -2 -79 -40.667 -79 -116v-358c0 -78 33.667 -117 101 -117c68 0 102 39 102 117v358zM663 1579c0 63.333 -10.667 99.667 -32 109
c-12 5.33301 -33.667 8 -65 8c-8.66699 0 -17.667 -0.333008 -27 -1c-52.667 -2 -79 -40.667 -79 -116v-292c0 -78 33.667 -117 101 -117c68 0 102 39 102 117v292zM993 1581v-295.998c0 -136 -44.667 -227 -134 -273c89.333 -46 134 -137 134 -273v-357
c0 -176.667 -47 -298.334 -141 -365.001c-60.667 -42.667 -152.667 -65.334 -276 -68.001h-24c-109.333 0 -195 18 -257 54c-110 62.667 -165 189 -165 379v357c0 136 44.667 227 134 273c-89.333 46 -134 137 -134 273v296c0 196.667 59 325.334 177 386.001
c80.667 42 163.667 63 249 63c78.667 0 159 -18 241 -54c130.667 -56.667 196 -188.334 196 -395.001z" />
    <glyph glyph-name="nine" unicode="9" horiz-adv-x="1123" 
d="M660 807c-30 -26.667 -87.668 -39.999 -173.001 -39.999c-13.333 0 -27.666 0.666992 -42.999 2c-98 10 -174.667 45 -230 105c-56 61.333 -84 167 -84 317v390c0 288 144 432.333 432 433c287.333 0 431 -144.333 431 -433v-1200c0 -288 -144 -432 -432 -432
c-287.333 0 -431 144 -431 432v284h333v-284c0 -74.667 32.667 -112.334 98 -113.001h2c64.667 0 97 37.667 97 113v426zM462.999 1191c0 -61.333 10.333 -96.332 31 -104.999c11.333 -5.33301 32.333 -8 63 -8c8 0 17 0.333008 27 1c50.667 1.33301 76 38.666 76 111.999
v390c0 75.333 -32.667 113 -98 113c-66 0 -99 -37.667 -99 -113v-390z" />
    <glyph glyph-name="colon" unicode=":" horiz-adv-x="614" 
d="M120 1349h374v-364h-374v364zM120 345h374v-365h-374v365z" />
    <glyph glyph-name="semicolon" unicode=";" horiz-adv-x="641" 
d="M120 345h401v-309l-113 -383h-232l58 327h-114v365zM120 1349h375v-364h-375v364z" />
    <glyph glyph-name="semicolon" unicode="&#x37e;" horiz-adv-x="641" 
d="M120 345h401v-309l-113 -383h-232l58 327h-114v365zM120 1349h375v-364h-375v364z" />
    <glyph glyph-name="less" unicode="&#x3c;" horiz-adv-x="1097" 
d="M120 1130l857 480v-323l-567 -310l567 -300v-323l-857 465v311z" />
    <glyph glyph-name="equal" unicode="=" horiz-adv-x="1097" 
d="M120 1076v273h857v-273h-857zM120 613v272h857v-272h-857z" />
    <glyph glyph-name="greater" unicode="&#x3e;" horiz-adv-x="1097" 
d="M977 819l-857 -465v323l567 300l-567 310v323l857 -480v-311z" />
    <glyph glyph-name="question" unicode="?" horiz-adv-x="1103" 
d="M236 345h375v-365h-375v365zM983 1384c0 -170.667 -68.667 -324.334 -206 -461.001c-128 -127.333 -192 -237.666 -192 -330.999v-65h-333v89c0 168 68.667 320 206 456c128 126.667 192 233 192 319v190c0 75.333 -32.333 113 -97 113h-2
c-65.333 0 -98 -37.667 -98 -113v-283h-333v283c0 288.667 144 433 432 433c287.333 0 431 -144.333 431 -433v-197z" />
    <glyph glyph-name="at" unicode="@" horiz-adv-x="1533" 
d="M1402 1283v-59c0 -194.667 -97.333 -292 -292 -292h-84v-324c0 -194.667 -97.667 -292 -293 -292c-194.667 0 -292 97.333 -292 292v257c0 194 97.333 291 292 291h57v242c0 44.667 -18.667 67 -56 67h-2c-36.667 0 -55 -22.333 -55 -67v-90h-236v90
c0 194 97.333 291 292 291c195.333 0 293 -97 293 -291v-242h84c37.333 0 56 22.667 56 68v186c0 261.333 -133 392 -399 392c-266.667 0 -400 -135 -400 -405v-801c0 -261.333 133.333 -392 400 -392c266 0 399 134.667 399 404v63h237v-63c0 -418 -212 -627 -636 -627
c-424.667 0 -637 205 -637 615v801c0 418.667 212.333 628 637 628c424 0 636 -205 636 -615v-127h-1zM717 933c-37.333 0 -56 -22.667 -56 -68v-257c0 -45.333 18.667 -68 56 -68c38 0 57 22.667 57 68v324z" />
    <glyph glyph-name="A" unicode="A" horiz-adv-x="1107" 
d="M972 698l95 -718h-336l-55 416h-245l-56 -416h-335l95 715l203 1287h432zM633 716l-80 606l-80 -606h160z" />
    <glyph glyph-name="B" unicode="B" horiz-adv-x="1093" 
d="M130 1982l461 -1c268 0 402 -144 402 -432v-295c0 -136 -44.667 -227 -134 -273c89.333 -46 134 -137 134 -273v-296c0 -287.333 -134 -431 -402 -431c-3.33301 0 -9 -0.333008 -17 -1h-444v2002zM463 1663v-522.001h64c36 0 59.333 2 70 6
c42 16.667 63 52.334 63 107.001v295c0 76 -32.667 114 -98 114h-99zM463 820.999l-0.000976562 -522h99c65.333 0 98 37.667 98 113v296c0 54.667 -21 90 -63 106c-11.333 4.66699 -34.666 7 -69.999 7h-64z" />
    <glyph glyph-name="C" unicode="C" horiz-adv-x="1073" 
d="M973 381c0 -288 -144 -432.334 -432 -433.001c-287.333 0 -431 144.333 -431 433v1200c0 288 143.667 432 431 432c288 0 432 -144 432 -432v-284h-333v284c0 74.667 -32.667 112.334 -98 113.001h-2c-64.667 0 -97 -37.667 -97 -113v-1200
c0 -75.333 32.667 -113 98 -113c66 0 99 37.667 99 113v284h333v-284z" />
    <glyph glyph-name="D" unicode="D" horiz-adv-x="1103" 
d="M130 1982l461 -1c268 0 402 -144 402 -432v-1137c0 -287.333 -134 -431 -402 -431c-3.33301 0 -9 -0.333008 -17 -1h-444v2002zM463 1663v-1364h99c65.333 0 98 37.667 98 113v1137c0 76 -32.667 114 -98 114h-99z" />
    <glyph glyph-name="E" unicode="E" horiz-adv-x="994" 
d="M130 1982h784v-319h-451v-522h388v-320h-388v-522h451v-319h-784v2002z" />
    <glyph glyph-name="F" unicode="F" horiz-adv-x="974" 
d="M130 1982h784v-319h-451v-522h388v-320h-388v-841h-333v2002z" />
    <glyph glyph-name="G" unicode="G" horiz-adv-x="1083" 
d="M533 1141l440 -0.000976562v-760c0 -288 -144 -432.333 -432 -433c-287.333 0 -431 144.333 -431 433v1200c0 288 143.667 432 431 432c288 0 432 -144 432 -432v-284h-333v284c0 74.667 -32.667 112.334 -98 113.001h-2c-64.667 0 -97 -37.667 -97 -113v-1200
c0 -75.333 32.667 -113 98 -113c66 0 99 37.667 99 113v440h-107v320z" />
    <glyph glyph-name="H" unicode="H" horiz-adv-x="1123" 
d="M130 1982h333v-841h197v841h333v-2002h-333v841h-197v-841h-333v2002z" />
    <glyph glyph-name="I" unicode="I" horiz-adv-x="603" 
d="M135 1982h333v-2002h-333v2002z" />
    <glyph glyph-name="J" unicode="J" horiz-adv-x="1023" 
d="M30 517h333v-136c0 -75.333 33 -113 99 -113c65.333 0 98 37.667 98 113v1601h333v-1601c0 -288.667 -143.667 -433 -431 -433c-288 0.666992 -432 145 -432 433v136z" />
    <glyph glyph-name="K" unicode="K" horiz-adv-x="1116" 
d="M694 981l382 -1001h-356l-257 745v-745h-333v2002h333v-745l257 745h356z" />
    <glyph glyph-name="L" unicode="L" horiz-adv-x="954" 
d="M130 -20v2002h333v-1683h451v-319h-784z" />
    <glyph glyph-name="M" unicode="M" horiz-adv-x="1538" 
d="M771 721l308 1261h329v-2002h-321v892l-196 -892h-234l-203 898v-898h-324v2002h329z" />
    <glyph glyph-name="N" unicode="N" horiz-adv-x="1123" 
d="M130 1982h329l222 -944v939l312 5v-2002h-329l-212 907v-907h-322v2002z" />
    <glyph glyph-name="O" unicode="O" horiz-adv-x="1083" 
d="M973 381c0 -288 -144 -432.333 -432 -433c-287.333 0 -431 144.333 -431 433v1200c0 288 143.667 432 431 432c288 0 432 -144 432 -432v-1200zM640 1581c0 74.667 -32.667 112.333 -98 113h-2c-64.667 0 -97 -37.667 -97 -113v-1200c0 -75.333 32.667 -113 98 -113
c66 0 99 37.667 99 113v1200z" />
    <glyph glyph-name="P" unicode="P" horiz-adv-x="1049" 
d="M130 1982l437 -1c268 0 402 -144 402 -432v-295c0 -211.333 -95.667 -348.333 -287 -411c-46 -14.667 -112 -22 -198 -22h-21v-841h-333v2002zM463 1663v-522.001h40c36 0 59.333 2 70 6c42 16.667 63 52.334 63 107.001v295c0 76 -32.667 114 -98 114h-75z" />
    <glyph glyph-name="Q" unicode="Q" horiz-adv-x="1083" 
d="M973 381c0 -256.667 -102.999 -398.001 -308.999 -424.001c1.33301 -18 104.333 -27.667 309 -29v-276c-188.667 0 -316.334 17.333 -383.001 52c-89.333 45.333 -135 128.333 -137 249c-228.667 16.667 -343 159.334 -343 428.001v1200c0 288 143.667 432 431 432
c288 0 432 -144 432 -432v-1200zM640.001 1581c0 74.667 -32.667 112.333 -98 113h-2c-64.667 0 -97 -37.667 -97 -113v-1200c0 -75.333 32.667 -113 98 -113c66 0 99 37.667 99 113v1200z" />
    <glyph glyph-name="R" unicode="R" horiz-adv-x="1102" 
d="M130 1982l437 -1.00098c268 0 402 -144 402 -432v-295c0 -181.333 -72.667 -298.666 -218 -351.999l321 -922h-363l-254 860l8 1v-861h-333v2002zM463 1663v-522.001h40c36 0 59.333 2 70 6c42 16.667 63 52.334 63 107.001v295c0 76 -32.667 114 -98 114h-75z" />
    <glyph glyph-name="S" unicode="S" horiz-adv-x="1083" 
d="M110 1581c0 288 143.667 431.998 431 431.998c288 0 432 -144 432 -432v-284h-333v284c0 74.667 -32.667 112.334 -98 113.001h-2c-64.667 0 -97 -37.667 -97 -113v-178c0 -81.333 85.333 -183.333 256 -306c182.667 -130 274 -286 274 -468v-248
c0 -288.667 -143.667 -433 -431 -433c-288 0.666992 -432 145 -432 433v284h333v-284c0 -75.333 33 -113 99 -113c65.333 0 98 37.667 98 113v224c0 88.667 -85.333 194.334 -256 317.001c-182.667 130 -274 288.333 -274 475v184z" />
    <glyph glyph-name="T" unicode="T" horiz-adv-x="963" 
d="M913 1982v-319h-265v-1683h-333v1683h-265v319h863z" />
    <glyph glyph-name="U" unicode="U" horiz-adv-x="1103" 
d="M983 381c0 -288 -144 -432.333 -432 -433c-287.333 0 -431 144.333 -431 433v1601h333v-1601c0 -75.333 32.667 -113 98 -113c66 0 99 37.667 99 113v1601h333v-1601z" />
    <glyph glyph-name="V" unicode="V" horiz-adv-x="1107" 
d="M770 -20h-432l-203 1286l-95 716h336l177 -1342l178 1342h336l-95 -718z" />
    <glyph glyph-name="W" unicode="W" horiz-adv-x="1788" 
d="M1234 640l178 1342h336l-95 -718l-202 -1284h-432l-125 859l-124 -859h-432l-203 1286l-95 716h335l178 -1342l178 1342h325z" />
    <glyph glyph-name="X" unicode="X" horiz-adv-x="1082" 
d="M376 1982l165 -494l164 494h336l-332 -1001l332 -1001h-336l-164 494l-165 -494h-336l332 1001l-332 1001h336z" />
    <glyph glyph-name="Y" unicode="Y" horiz-adv-x="1130" 
d="M392 1982l173 -684l173 684h352l-351 -1138l-7 -21v-843h-333v842l-8 22l-351 1138h352z" />
    <glyph glyph-name="Z" unicode="Z" horiz-adv-x="930" 
d="M833 1790l-378 -1491h395v-319h-770v192l378 1491h-365v319h740v-192z" />
    <glyph glyph-name="bracketleft" unicode="[" horiz-adv-x="597" 
d="M567 2230v-272h-154v-1952h154v-273h-437v2497h437z" />
    <glyph glyph-name="backslash" unicode="\" horiz-adv-x="807" 
d="M347 1983l399 -2003h-287l-399 2003h287z" />
    <glyph glyph-name="bracketright" unicode="]" horiz-adv-x="597" 
d="M467 2230v-2497h-437v273h154v1952h-154v272h437z" />
    <glyph glyph-name="asciicircum" unicode="^" horiz-adv-x="1227" 
d="M759 1999l368 -847h-307l-207 476l-206 -476h-307l368 847h291z" />
    <glyph glyph-name="underscore" unicode="_" horiz-adv-x="1082" 
d="M0 -338v251h1082v-251h-1082z" />
    <glyph glyph-name="grave" unicode="`" horiz-adv-x="836" 
d="M130 2078h258l318 -293h-286l-290 188v105z" />
    <glyph glyph-name="a" unicode="a" horiz-adv-x="1107" 
d="M972 616l95 -636h-336l-55 368h-245l-56 -368h-335l95 633l203 1136h432zM633 634l-80 531l-80 -531h160z" />
    <glyph glyph-name="b" unicode="b" horiz-adv-x="1093" 
d="M130 1749h444c8 -0.666992 13.667 -1 17 -1c268 0 402 -127.333 402 -382v-261c0 -121.333 -43 -201.333 -129 -240c86 -38.667 129 -119 129 -241v-260c0 -255.333 -134 -383 -402 -383h-18l-443 -1v1769zM463 1463v-455h64c36 0 59.667 2 71 6
c41.333 14.667 62 45 62 91v261c0 64.667 -32.667 97 -98 97h-99zM463 722v-456.001h99c65.333 0 98 32.667 98 98v260c0 46.667 -20.667 77.334 -62 92.001c-11.333 4 -35 6 -71 6h-64z" />
    <glyph glyph-name="c" unicode="c" horiz-adv-x="1073" 
d="M973 336c0 -255.333 -144 -383.001 -432 -383.001c-287.333 0 -431 127.667 -431 383v1057c0 256 143.667 384 431 384c288 0 432 -128 432 -384v-252h-333v252c0 64.667 -32.667 97.334 -98 98.001c-66 0 -99 -32.667 -99 -98v-1057c0 -64.667 32.667 -97 98 -97
c66 0 99 32.333 99 97v253h333v-253z" />
    <glyph glyph-name="d" unicode="d" horiz-adv-x="1103" 
d="M130 1749h444c8 -0.666992 13.667 -1 17 -1c268 0 402 -127.333 402 -382v-1002c0 -255.333 -134 -383 -402 -383h-18l-443 -1v1769zM463 1463v-1197h99c65.333 0 98 32.667 98 98v1002c0 64.667 -32.667 97 -98 97h-99z" />
    <glyph glyph-name="e" unicode="e" horiz-adv-x="974" 
d="M130 1749h784v-286h-451v-455h388v-286h-388v-456h451v-286h-784v1769z" />
    <glyph glyph-name="f" unicode="f" horiz-adv-x="974" 
d="M130 1749h784v-286h-451v-455h388v-286h-388v-742h-333v1769z" />
    <glyph glyph-name="g" unicode="g" horiz-adv-x="1083" 
d="M535 1008l438 -0.000976562v-672c0 -255.333 -144 -383 -432 -383c-287.333 0 -431 127.667 -431 383v1057c0 256 143.667 384 431 384c288 0 432 -128 432 -384v-252h-333v252c0 64.667 -32.667 97.334 -98 98.001c-66 0 -99 -32.667 -99 -98v-1057
c0 -64.667 32.667 -97 98 -97c66 0 99 32.333 99 97v386h-105v286z" />
    <glyph glyph-name="h" unicode="h" horiz-adv-x="1123" 
d="M130 1749h333v-741h197v741h333v-1769h-333v742h-197v-742h-333v1769z" />
    <glyph glyph-name="i" unicode="i" horiz-adv-x="598" 
d="M135 1749h333v-1769h-333v1769z" />
    <glyph glyph-name="j" unicode="j" horiz-adv-x="1023" 
d="M30 458h333v-122c0 -64.667 33 -97 99 -97c65.333 0 98 32.333 98 97v1413h333v-1413c0 -255.333 -143.667 -383 -431 -383c-288 0 -432 127.667 -432 383v122z" />
    <glyph glyph-name="k" unicode="k" horiz-adv-x="1117" 
d="M694 865l383 -885h-356l-258 658v-658h-333v1769h333v-658l258 658h356z" />
    <glyph glyph-name="l" unicode="l" horiz-adv-x="954" 
d="M130 -20v1769h333v-1483h451v-286h-784z" />
    <glyph glyph-name="m" unicode="m" horiz-adv-x="1538" 
d="M771 637l309 1112h328v-1769h-321v789l-197 -789h-232l-204 794v-794h-324v1769h328z" />
    <glyph glyph-name="n" unicode="n" horiz-adv-x="1123" 
d="M130 1749h328l223 -834v830l312 4v-1769h-328l-213 802v-802h-322v1769z" />
    <glyph glyph-name="o" unicode="o" horiz-adv-x="1083" 
d="M973 336c0 -255.333 -144 -383 -432 -383c-287.333 0 -431 127.667 -431 383v1057c0 256 143.667 384 431 384c288 0 432 -128 432 -384v-1057zM640 1393c0 64.667 -32.667 97.333 -98 98c-66 0 -99 -32.667 -99 -98v-1057c0 -64.667 32.667 -97 98 -97
c66 0 99 32.333 99 97v1057z" />
    <glyph glyph-name="p" unicode="p" horiz-adv-x="1049" 
d="M130 1749h420c8 -0.666992 13.667 -1 17 -1c268 0 402 -127.333 402 -382v-261c0 -188 -96 -309.333 -288 -364c-46 -12.667 -111.667 -19 -197 -19h-21v-742h-333v1769zM463 1463v-455h40c36 0 59.667 2 71 6c41.333 14.667 62 45 62 91v261c0 64.667 -32.667 97 -98 97
h-75z" />
    <glyph glyph-name="q" unicode="q" horiz-adv-x="1083" 
d="M973 336c0 -227.333 -102.668 -352.334 -308.001 -375.001c0.666992 -13.333 103.334 -20.666 308.001 -21.999v-247c-188 0 -315.333 15 -382 45c-90 40.667 -136 114 -138 220c-228.667 14.667 -343 141 -343 379v1057c0 256 143.667 384 431 384
c288 0 432 -128 432 -384v-1057zM639.999 1393c0 64.667 -32.667 97.333 -98 98c-66 0 -99 -32.667 -99 -98v-1057c0 -64.667 32.667 -97 98 -97c66 0 99 32.333 99 97v1057z" />
    <glyph glyph-name="r" unicode="r" horiz-adv-x="1103" 
d="M130 1749h420c8 -0.666992 13.667 -1 17 -1c268 0 402 -127.333 402 -382v-261c0 -160.667 -72.333 -264.667 -217 -312l321 -813h-363l-235 732l-12 -1v-731h-333v1769zM463 1463v-455h40c36 0 59.667 2 71 6c41.333 14.667 62 45 62 91v261c0 64.667 -32.667 97 -98 97
h-75z" />
    <glyph glyph-name="s" unicode="s" horiz-adv-x="1083" 
d="M110 1393c0 256 143.667 383.999 431 383.999c288 0 432 -128 432 -384v-252h-333v252c0 64.667 -32.667 97.334 -98 98.001c-66 0 -99 -32.667 -99 -98v-156c0 -70.667 85 -159.667 255 -267c183.333 -114.667 275 -253 275 -415v-219
c0 -255.333 -143.667 -383 -431 -383c-288 0 -432 127.667 -432 383v253h333v-253c0 -64.667 33 -97 99 -97c65.333 0 98 32.333 98 97v197c0 77.333 -84.333 169.333 -253 276c-184.667 116 -277 256.667 -277 422v162z" />
    <glyph glyph-name="t" unicode="t" horiz-adv-x="963" 
d="M913 1749v-286h-265v-1483h-333v1483h-265v286h863z" />
    <glyph glyph-name="u" unicode="u" horiz-adv-x="1103" 
d="M983 336c0 -255.333 -144 -383 -432 -383c-287.333 0 -431 127.667 -431 383v1413h333v-1413c0 -64.667 32.667 -97 98 -97c66 0 99 32.333 99 97v1413h333v-1413z" />
    <glyph glyph-name="v" unicode="v" horiz-adv-x="1107" 
d="M770 -20h-432l-203 1136l-95 633h336l177 -1184l178 1184h336l-95 -635z" />
    <glyph glyph-name="w" unicode="w" horiz-adv-x="1788" 
d="M1234 565l178 1184h336l-95 -635l-202 -1134h-432l-125 759l-124 -759h-432l-203 1136l-95 633h335l178 -1184l178 1184h325z" />
    <glyph glyph-name="x" unicode="x" horiz-adv-x="1084" 
d="M378 1749l165 -438l164 438h338l-334 -884l334 -885h-338l-164 438l-165 -438h-338l334 885l-334 884h338z" />
    <glyph glyph-name="y" unicode="y" horiz-adv-x="1132" 
d="M393 1749l173 -604l173 604h353l-352 -1006l-7 -19v-744h-333v744l-8 18l-352 1007h353z" />
    <glyph glyph-name="z" unicode="z" horiz-adv-x="930" 
d="M833 1577l-378 -1311h395v-286h-770v172l378 1311h-365v286h740v-172z" />
    <glyph glyph-name="braceleft" unicode="{" horiz-adv-x="595" 
d="M565 -267c-296 3.33301 -444 147.668 -444 433.001v566c0 74 -37 111.667 -111 113v272c74 2 111 40 111 114v567c0 284.667 148 428.667 444 432v-271c-74 -2 -111 -40.333 -111 -115v-566c0 -136.667 -24.667 -235.334 -74 -296.001
c49.333 -61.333 74 -160.333 74 -297v-566c0 -74 37 -112 111 -114v-272z" />
    <glyph glyph-name="bar" unicode="|" horiz-adv-x="562" 
d="M140 2310h282v-2657h-282v2657z" />
    <glyph glyph-name="braceright" unicode="}" horiz-adv-x="595" 
d="M30 5c74 2 111 39.998 111 113.998v566c0 136.667 24.667 235.667 74 297c-49.333 60.667 -74 159.334 -74 296.001v566c0 74.667 -37 113 -111 115v271c296 -3.33301 444 -147.333 444 -432v-567c0 -74 37 -112 111 -114v-272c-74 -1.33301 -111 -39 -111 -113v-566
c0 -285.333 -148 -429.666 -444 -432.999v272z" />
    <glyph glyph-name="asciitilde" unicode="~" horiz-adv-x="1163" 
d="M307 800l-207.002 135.002l63 97c70.667 110 155.334 165 254.001 165h11c64.667 -2.66699 144 -39.334 238 -110.001c42 -31.333 74.333 -47 97 -47c11.333 0 21 5 29 15l79 99l192 -153l-73 -92c-64.667 -82 -139.667 -123 -225 -123h-13
c-64.667 2.66699 -144 39.667 -238 111c-49.333 37.333 -77.666 56.666 -84.999 57.999h-3c-12.667 0 -29.667 -16.333 -51 -49z" />
    <glyph glyph-name="exclamdown" unicode="&#xa1;" horiz-adv-x="565" 
d="M120 -253l21 1472h333l21 -1472h-375zM495 1384h-375v365h375v-365z" />
    <glyph glyph-name="cent" unicode="&#xa2;" horiz-adv-x="1135" 
d="M459 775l196 640c-6 50 -38.333 75.333 -97 76c-66 0 -99 -32.667 -99 -98v-618zM493 252c9.33301 -8.66699 30.668 -13 64.001 -13c66 0 99 32.333 99 97v253h333v-253c0 -255.333 -144 -383 -432 -383c-66.667 0 -117 4.66699 -151 14l-97 -315l-189 12l116 384
c-73.333 58.667 -110 154.667 -110 288v1057c0 256 143.667 384 431 384c89.333 0 155.666 -9 198.999 -27l69 223l190 -12l-98 -320c48 -58 72 -140.667 72 -248v-252h-224z" />
    <glyph glyph-name="sterling" unicode="&#xa3;" horiz-adv-x="1176" 
d="M586 898v-346.001c0 -121.333 -15.333 -205.666 -46 -252.999h497v-319h-977v319h94c66 0 99 38 99 114v485h-193v198h193v485c0 288.667 143.667 433 431 433c288 0 432 -144.333 432 -433v-283h-333v283c0 75.333 -32.667 113 -98 113h-2
c-64.667 0 -97 -37.667 -97 -113v-485h331v-198h-331z" />
    <glyph glyph-name="currency" unicode="&#xa4;" horiz-adv-x="1462" 
d="M1163 848c0 -38.667 -1.99902 -71.999 -5.99902 -99.999l175 -174l-202 -203l-112 113c-56.667 -45.333 -152.334 -68 -287.001 -68s-230 22.333 -286 67l-112 -112l-203 203l175 174c-3.33301 27.333 -5 60.666 -5 99.999v267c0 32.667 1 60.334 3 83.001l-173 173
l203 202l101 -101c56 50.667 155 76 297 76s241.333 -25.333 298 -76l101 101l202 -202l-173 -173c2.66699 -22.667 4 -50.334 4 -83.001v-267zM830.001 1115c0 74.667 -32.667 112.333 -98 113h-2c-64.667 0 -97 -37.667 -97 -113v-267c0 -75.333 32.667 -113 98 -113
c66 0 99 37.667 99 113v267z" />
    <glyph glyph-name="yen" unicode="&#xa5;" horiz-adv-x="1250" 
d="M404 996l-304 986h352l173 -683l173 683h352l-304 -986h208v-198h-262v-119h262v-199h-262v-500h-333v500h-262v199h262v119h-262v198h207z" />
    <glyph glyph-name="brokenbar" unicode="&#xa6;" horiz-adv-x="562" 
d="M140 1749h282v-783h-282v783zM140 804h282v-824h-282v824z" />
    <glyph glyph-name="section" unicode="&#xa7;" horiz-adv-x="1103" 
d="M554 -347c-274 0 -411 133.332 -411 399.999v126h333v-126c0 -68.667 29.333 -103 88 -103c56.667 0 85 34.333 85 103c0 121.333 -84.667 233.333 -254 336c-183.333 110 -275 283 -275 519c0 190 56 307 168 351c-112 74.667 -168 201 -168 379
c0 250.667 142.667 376 428 376c274 0 411 -125.333 411 -376v-120h-333v120c0 63.333 -29 95 -87 95c-57.333 0 -86 -31.667 -86 -95c0 -113.333 84 -217.666 252 -312.999c185.333 -104.667 278 -267.667 278 -489c0 -200 -70.667 -316 -212 -348
c141.333 -86.667 212 -231.667 212 -435c0 -266.667 -143 -400 -429 -400zM653 895.999c0 82 -36 123.333 -108 124h-2c-71.333 0 -107 -41.333 -107 -124v-41c0 -82.667 36 -124 108 -124c72.667 0 109 41.333 109 124v41z" />
    <glyph glyph-name="dieresis" unicode="&#xa8;" horiz-adv-x="949" 
d="M130 2068h292v-282h-292v282zM526 2068h293v-282h-293v282z" />
    <glyph glyph-name="copyright" unicode="&#xa9;" horiz-adv-x="1513" 
d="M1393 608c0 -418 -212.333 -627 -637 -627c-424 0 -636 205 -636 615v801c0 418.667 212 628 636 628c424.667 0 637 -205 637 -615v-802zM1156 1410c0 261.333 -133 392 -399 392c-266.667 0 -400 -135 -400 -405v-801c0 -261.333 133 -392 399 -392
c266.667 0 400 134.667 400 404v802zM1054 604c0 -196.667 -98.667 -295 -296 -295c-196.667 0 -295 98.333 -295 295v798c0 196 98.333 294 295 294c197.333 0 296 -98 296 -294v-97h-239v97c0 45.333 -18.667 68.333 -56 69c-38.667 0 -58 -23 -58 -69v-798
c0 -46 19 -69 57 -69s57 23 57 69v96h239v-96z" />
    <glyph glyph-name="ordfeminine" unicode="&#xaa;" horiz-adv-x="818" 
d="M694 1296l65 -391h-240l-36 221h-147l-37 -221h-239l65 390l136 687h298zM452 1313l-43 258l-43 -258h86zM71 501v233h669v-233h-669z" />
    <glyph glyph-name="guillemotleft" unicode="&#xab;" horiz-adv-x="1305" 
d="M744 1171l-215 -182l215 -176v-382l-614 571l614 560v-391zM1233 1171l-215 -182l215 -176v-382l-614 571l614 560v-391z" />
    <glyph glyph-name="logicalnot" unicode="&#xac;" horiz-adv-x="1117" 
d="M130 845v273h857v-560h-282v287h-575z" />
    <glyph glyph-name="registered" unicode="&#xae;" horiz-adv-x="1513" 
d="M1393 608c0 -418 -212.333 -627 -637 -627c-424 0 -636 205 -636 615v801c0 418.667 212 628 636 628c424.667 0 637 -205 637 -615v-802zM1156 1410c0 261.333 -133 392 -399 392c-266.667 0 -400 -135 -400 -405v-801c0 -261.333 133 -392 399 -392
c266.667 0 400 134.667 400 404v802zM458 1676l303.001 -1h12c184 0 276 -98 276 -294v-197c0 -92.667 -27.333 -153 -82 -181c54.667 -28 82 -88.667 82 -182v-491h-238v491c0 33.333 -12.333 55 -37 65c-6.66699 2.66699 -21.334 4 -44.001 4h-34v-560h-238v1346z
M696.001 1450l-0.000976562 -333.999h34c22.667 0 37.334 1.33301 44.001 4c24.667 9.33301 37 30.666 37 63.999v197c0 46 -19 69 -57 69h-58z" />
    <glyph glyph-name="macron" unicode="&#xaf;" horiz-adv-x="1258" 
d="M0 1732v251h1258v-251h-1258z" />
    <glyph glyph-name="degree" unicode="&#xb0;" horiz-adv-x="927" 
d="M797 1741c0 -219.333 -111.333 -329 -334 -329c-222 0 -333 109.667 -333 329c0 218.667 111 328 333 328c222.667 0 334 -109.333 334 -328zM463 1846c-66.667 0 -100 -35 -100 -105c0 -70.667 33.333 -106 100 -106c67.333 0 101 35.333 101 106
c0 70 -33.667 105 -101 105z" />
    <glyph glyph-name="plusminus" unicode="&#xb1;" horiz-adv-x="1097" 
d="M408 845h-288v273h288v287h282v-287h287v-273h-287v-287h-282v287zM975 392v-252h-855v252h855z" />
    <glyph glyph-name="uni00B2" unicode="&#xb2;" horiz-adv-x="724" 
d="M100 1077c0 108.667 54.332 202 162.999 280c96.667 69.333 145.334 126.666 146.001 171.999v224c0 38.667 -15.333 58 -46 58h-1c-31.333 0 -47 -19.333 -47 -58v-173h-215v173c0 174 87.333 261 262 261s262 -87 262 -261v-228c0 -111.333 -54.667 -206 -164 -284
c-96.667 -69.333 -145 -128.666 -145 -177.999v-49h309v-203h-524v266z" />
    <glyph glyph-name="uni00B3" unicode="&#xb3;" horiz-adv-x="729" 
d="M414 1261c0 34.667 -4.33301 53.668 -13 57.001c-6 2.66699 -16.667 4 -32 4h-82v204h95c10 0 16.667 1 20 3c8 4.66699 12 23 12 55v172c0 34.667 -4.33301 53.667 -13 57c-6 2.66699 -17.333 4 -34 4c-4 0 -9 -0.333008 -15 -1c-24.667 -0.666992 -37 -20.667 -37 -60
v-174h-215v175c0 119.333 36.333 197.666 109 234.999c49.333 25.333 100 38 152 38c48 0 97 -11 147 -33c80.667 -34.667 121 -114.667 121 -240v-174c0 -83.333 -23.333 -137 -70 -161c46.667 -24 70 -77.667 70 -161v-210c0 -106.667 -29 -180.334 -87 -221.001
c-36.667 -26.667 -93 -41 -169 -43h-14c-66.667 0 -119 11.333 -157 34c-68 38.667 -102 115.334 -102 230.001v175h215v-176c0 -40 16.333 -60 49 -60c33.333 0 50 20 50 60v211z" />
    <glyph glyph-name="acute" unicode="&#xb4;" horiz-adv-x="836" 
d="M706 1973l-290 -188h-286l318 293h258v-105z" />
    <glyph glyph-name="mu" unicode="&#xb5;" horiz-adv-x="1113" 
d="M463 380c0 -74.667 32.666 -112 97.999 -112c66 0 99 37.667 99 113v1274h333v-1274c0 -260 -113.667 -402.667 -341 -428c-13.333 -1.33301 -26.666 -2 -39.999 -2c-68 0 -117.667 10.333 -149 31v-329h-333v2002h333v-1275z" />
    <glyph glyph-name="paragraph" unicode="&#xb6;" horiz-adv-x="1220" 
d="M1090 1983l-0.000976562 -2003h-251v1762h-173v-1762h-251v1021c-119.333 0 -198.666 14.667 -237.999 44c-51.333 39.333 -77 127.666 -77 264.999v354c0 138 26.333 227.667 79 269c41.333 33.333 128.333 50 261 50h650z" />
    <glyph glyph-name="periodcentered" unicode="&#xb7;" horiz-adv-x="508" 
d="M119.997 1136.24h318.741v-310.241h-318.741v310.241z" />
    <glyph glyph-name="periodcentered" unicode="&#x2219;" horiz-adv-x="508" 
d="M119.997 1136.24h318.741v-310.241h-318.741v310.241z" />
    <glyph glyph-name="cedilla" unicode="&#xb8;" horiz-adv-x="687" 
d="M370 -39c-2 -1.33301 -3.00098 -2.33301 -3.00098 -3c0 -2.66699 9.66699 -4 29 -4c27.333 0 52 -8.33301 74 -25c24 -17.333 36 -45.666 36 -84.999v-99c0 -68.667 -41.667 -106.334 -125 -113.001c-10.667 -1.33301 -23 -2 -37 -2
c-7.33301 0 -14.666 0.333008 -21.999 1c-94.667 2.66699 -142 40.667 -142 114v49c60 -30 105.333 -45 136 -45c33.333 0 50.333 17 51 51v2c0 54.667 -45 82 -135 82c-14 0 -29 -0.666992 -45 -2l29 139h175z" />
    <glyph glyph-name="uni00B9" unicode="&#xb9;" horiz-adv-x="1123" 
d="M496 1982v-971h153v-201h-519v201h153v770h-153v201h366z" />
    <glyph glyph-name="ordmasculine" unicode="&#xba;" horiz-adv-x="827" 
d="M707 1110c0 -158.667 -98 -238 -294 -238c-195.333 0 -293 79.333 -293 238v634c0 158.667 97.667 238 293 238c196 0 294 -79.333 294 -238v-634zM470 1744c0 33.333 -18.667 50.333 -56 51c-38 0 -57 -17 -57 -51v-634c0 -34 18.667 -51 56 -51c38 0 57 17 57 51v634z
M130 486v215h566v-215h-566z" />
    <glyph glyph-name="guillemotright" unicode="&#xbb;" horiz-adv-x="1305" 
d="M130 1562l614 -560l-614 -571v382l215 176l-215 182v391zM619 1562l614 -560l-614 -571v382l215 176l-215 182v391z" />
    <glyph glyph-name="onequarter" unicode="&#xbc;" horiz-adv-x="1659" 
d="M1496 1145v-689h63v-200h-63v-276h-212v276h-329v165l291 724h250zM1174 456h110v279zM1395 1983l-736 -2003h-228l737 2003h227zM486 1982v-971h153v-201h-519v201h153v770h-153v201h366z" />
    <glyph glyph-name="onehalf" unicode="&#xbd;" horiz-adv-x="1735" 
d="M1335 1983l-736 -2003h-228l737 2003h227zM426 1982v-971h153v-201h-519v201h153v770h-153v201h366zM1111 246c0 108.667 54.332 202 162.999 280c96.667 69.333 145.334 126.666 146.001 171.999v224c0 38.667 -15.333 58 -46 58h-1c-31.333 0 -47 -19.333 -47 -58v-173
h-215v173c0 174 87.333 261 262 261s262 -87 262 -261v-228c0 -111.333 -54.667 -206 -164 -284c-96.667 -69.333 -145 -128.666 -145 -177.999v-49h309v-203h-524v266z" />
    <glyph glyph-name="threequarters" unicode="&#xbe;" horiz-adv-x="1599" 
d="M1436 1145v-689h63v-200h-63v-276h-212v276h-329v165l291 724h250zM1114 456h110v279zM1335 1983l-736 -2003h-228l737 2003h227zM414 1261c0 34.667 -4.33301 53.668 -13 57.001c-6 2.66699 -16.667 4 -32 4h-82v204h95c10 0 16.667 1 20 3c8 4.66699 12 23 12 55v172
c0 34.667 -4.33301 53.667 -13 57c-6 2.66699 -17.333 4 -34 4c-4 0 -9 -0.333008 -15 -1c-24.667 -0.666992 -37 -20.667 -37 -60v-174h-215v175c0 119.333 36.333 197.666 109 234.999c49.333 25.333 100 38 152 38c48 0 97 -11 147 -33
c80.667 -34.667 121 -114.667 121 -240v-174c0 -83.333 -23.333 -137 -70 -161c46.667 -24 70 -77.667 70 -161v-210c0 -106.667 -29 -180.334 -87 -221.001c-36.667 -26.667 -93 -41 -169 -43h-14c-66.667 0 -119 11.333 -157 34c-68 38.667 -102 115.334 -102 230.001v175
h215v-176c0 -40 16.333 -60 49 -60c33.333 0 50 20 50 60v211z" />
    <glyph glyph-name="questiondown" unicode="&#xbf;" 
d="M867 1384h-375v365h375v-365zM120 345c0 170.667 68.667 324.334 206 461.001c128 127.333 192 237.666 192 330.999v65h333v-89c0 -168 -68.667 -320 -206 -456c-128 -126.667 -192 -233 -192 -319v-190c0 -75.333 32.333 -113 97 -113h2c65.333 0 98 37.667 98 113v283
h333v-283c0 -288.667 -144 -433 -432 -433c-287.333 0 -431 144.333 -431 433v197z" />
    <glyph glyph-name="Agrave" unicode="&#xc0;" horiz-adv-x="1091" 
d="M992 698l95 -718h-336l-55 416h-245l-56 -416h-335l95 715l203 1287h432zM653 716l-80 606l-80 -606h160zM218 2311h258l318 -293h-286l-290 188v105z" />
    <glyph glyph-name="Aacute" unicode="&#xc1;" horiz-adv-x="1091" 
d="M992 698l95 -718h-336l-55 416h-245l-56 -416h-335l95 715l203 1287h432zM653 716l-80 606l-80 -606h160zM929 2206l-290 -188h-286l318 293h258v-105z" />
    <glyph glyph-name="Acircumflex" unicode="&#xc2;" horiz-adv-x="1091" 
d="M992 698l95 -718h-336l-55 416h-245l-56 -416h-335l95 715l203 1287h432zM653 716l-80 606l-80 -606h160zM133 2019l296 292h288l299 -292h-316l-127 87l-126 -87h-314z" />
    <glyph glyph-name="Atilde" unicode="&#xc3;" horiz-adv-x="1091" 
d="M992 698l95 -718h-336l-55 416h-245l-56 -416h-335l95 715l203 1287h432zM653 716l-80 606l-80 -606h160zM347 1990l-147.999 81l43 86c48.667 98 114 149.333 196 154h8c50 0 112.667 -23.333 188 -70c29.333 -18.667 52.333 -28 69 -28c8.66699 0 15.667 4 21 12l55 89
l169 -112l-50 -82c-46.667 -74.667 -106.334 -114 -179.001 -118h-8c-50 0 -112 23.333 -186 70c-40.667 25.333 -62.667 38.333 -66 39h-2c-7.33301 0 -44 -40.333 -110 -121z" />
    <glyph glyph-name="Adieresis" unicode="&#xc4;" horiz-adv-x="1091" 
d="M992 698l95 -718h-336l-55 416h-245l-56 -416h-335l95 715l203 1287h432zM653 716l-80 606l-80 -606h160zM229 2301h292v-282h-292v282zM625 2301h293v-282h-293v282z" />
    <glyph glyph-name="Aring" unicode="&#xc5;" horiz-adv-x="1147" 
d="M653 716l-80 606l-80 -606h160zM573 2154c-36.667 0 -55 -20 -55 -60c0 -40.667 18.333 -61 55 -61c37.333 0 56 20.333 56 61c0 40 -18.667 60 -56 60zM780 1982h10l202 -1284l95 -718h-336l-55 416h-245l-56 -416h-335l95 715l203 1287h9
c-11.333 15.333 -17 52.666 -17 111.999c0 145.333 74.333 218 223 218c149.333 0 224 -72.667 224 -218c0 -59.333 -5.66699 -96.666 -17 -111.999z" />
    <glyph glyph-name="AE" unicode="&#xc6;" horiz-adv-x="1531" 
d="M554 396h-103l-56 -416h-335l95 715l203 1287h980v-319h-451v-522h388v-320h-388v-522h451v-319h-784v416zM554 716v750l-61 -750h61z" />
    <glyph glyph-name="Ccedilla" unicode="&#xc7;" horiz-adv-x="1093" 
d="M452 -46c-221.333 22 -331.998 164.332 -331.998 426.999v1200c0 288 143.667 432 431 432c288 0 432 -144 432 -432v-284h-333v284c0 74.667 -32.667 112.334 -98 113.001h-2c-64.667 0 -97 -37.667 -97 -113v-1200c0 -75.333 32.667 -113 98 -113
c66 0 99 37.667 99 113v284h333v-284c0 -271.333 -122.667 -415 -368 -431c-1.33301 -4 -2 -7.33301 -2 -10c0 -8 5 -12 15 -12c5.33301 0 12.666 1.33301 21.999 4c13.333 4 25.666 6 36.999 6c12.667 0 23.667 -3 33 -9c24 -17.333 36 -45.666 36 -84.999v-99
c0 -68.667 -42 -106.334 -126 -113.001c-10 -1.33301 -22.333 -2 -37 -2c-6.66699 0 -14 0.333008 -22 1c-94 2.66699 -141 40.667 -141 114v49l138 -3c16.667 -15.333 30 -23 40 -23c14 0 21.667 14.333 23 43v10c0 20.667 -4 31 -12 31c-7.33301 0 -18 -9 -32 -27l-152 47
z" />
    <glyph glyph-name="Egrave" unicode="&#xc8;" horiz-adv-x="944" 
d="M130 1982h784v-319h-451v-522h388v-320h-388v-522h451v-319h-784v2002zM166 2311h258l318 -293h-286l-290 188v105z" />
    <glyph glyph-name="Eacute" unicode="&#xc9;" horiz-adv-x="944" 
d="M130 1982h784v-319h-451v-522h388v-320h-388v-522h451v-319h-784v2002zM878 2206l-290 -188h-286l318 293h258v-105z" />
    <glyph glyph-name="Ecircumflex" unicode="&#xca;" horiz-adv-x="944" 
d="M157 1982h784v-319h-451v-522h388v-320h-388v-522h451v-319h-784v2002zM108 2019l296 292h288l299 -292h-316l-127 87l-126 -87h-314z" />
    <glyph glyph-name="Edieresis" unicode="&#xcb;" horiz-adv-x="944" 
d="M130 1982h784v-319h-451v-522h388v-320h-388v-522h451v-319h-784v2002zM178 2301h292v-282h-292v282zM574 2301h293v-282h-293v282z" />
    <glyph glyph-name="Igrave" unicode="&#xcc;" horiz-adv-x="553" 
d="M135 1982h333v-2002h-333v2002zM-54 2311h258l318 -293h-286l-290 188v105z" />
    <glyph glyph-name="Iacute" unicode="&#xcd;" horiz-adv-x="553" 
d="M165 1982h333v-2002h-333v2002zM687 2206l-290 -188h-286l318 293h258v-105z" />
    <glyph glyph-name="Icircumflex" unicode="&#xce;" horiz-adv-x="553" 
d="M163 1982h333v-2002h-333v2002zM-112 2019l296 292h288l299 -292h-316l-127 87l-126 -87h-314z" />
    <glyph glyph-name="Idieresis" unicode="&#xcf;" horiz-adv-x="553" 
d="M135 1982h333v-2002h-333v2002zM-43 2301h292v-282h-292v282zM353 2301h293v-282h-293v282z" />
    <glyph glyph-name="Eth" unicode="&#xd0;" horiz-adv-x="1165" 
d="M515 856v-557h99c65.333 0 98 37.667 98 113v1137c0 76 -32.667 114 -98 114h-99v-556h98v-251h-98zM182 1107v875l461 -1c268 0 402 -144 402 -432v-1137c0 -287.333 -134 -431 -402 -431c-3.33301 0 -9 -0.333008 -17 -1h-444v876h-124v251h124z" />
    <glyph glyph-name="Ntilde" unicode="&#xd1;" horiz-adv-x="1073" 
d="M130 1982h329l222 -944v939l312 5v-2002h-329l-212 907v-907h-322v2002zM331 1997l-143.999 74l43 86c48.667 98 114 149.333 196 154h8c50 0 112.667 -23.333 188 -70c29.333 -18.667 52.333 -28 69 -28c8.66699 0 15.667 4 21 12l55 89l169 -112l-50 -82
c-46.667 -74.667 -106.334 -114 -179.001 -118h-8c-50 0 -112 23.333 -186 70c-40.667 25.333 -62.667 38.333 -66 39h-2c-7.33301 0 -45.333 -38 -114 -114z" />
    <glyph glyph-name="Ograve" unicode="&#xd2;" 
d="M983 381c0 -288 -144 -432.333 -432 -433c-287.333 0 -431 144.333 -431 433v1200c0 288 143.667 432 431 432c288 0 432 -144 432 -432v-1200zM650 1581c0 74.667 -32.667 112.333 -98 113h-2c-64.667 0 -97 -37.667 -97 -113v-1200c0 -75.333 32.667 -113 98 -113
c66 0 99 37.667 99 113v1200zM196 2311h258l318 -293h-286l-290 188v105z" />
    <glyph glyph-name="Oacute" unicode="&#xd3;" 
d="M983 381c0 -288 -144 -432.333 -432 -433c-287.333 0 -431 144.333 -431 433v1200c0 288 143.667 432 431 432c288 0 432 -144 432 -432v-1200zM650 1581c0 74.667 -32.667 112.333 -98 113h-2c-64.667 0 -97 -37.667 -97 -113v-1200c0 -75.333 32.667 -113 98 -113
c66 0 99 37.667 99 113v1200zM907 2206l-290 -188h-286l318 293h258v-105z" />
    <glyph glyph-name="Ocircumflex" unicode="&#xd4;" 
d="M992 381c0 -288 -144 -432.333 -432 -433c-287.333 0 -431 144.333 -431 433v1200c0 288 143.667 432 431 432c288 0 432 -144 432 -432v-1200zM659 1581c0 74.667 -32.667 112.333 -98 113h-2c-64.667 0 -97 -37.667 -97 -113v-1200c0 -75.333 32.667 -113 98 -113
c66 0 99 37.667 99 113v1200zM120 2019l296 292h288l299 -292h-316l-127 87l-126 -87h-314z" />
    <glyph glyph-name="Otilde" unicode="&#xd5;" 
d="M983 381c0 -288 -144 -432.333 -432 -433c-287.333 0 -431 144.333 -431 433v1200c0 288 143.667 432 431 432c288 0 432 -144 432 -432v-1200zM650 1581c0 74.667 -32.667 112.333 -98 113h-2c-64.667 0 -97 -37.667 -97 -113v-1200c0 -75.333 32.667 -113 98 -113
c66 0 99 37.667 99 113v1200zM312 1997l-135 74.001l43 86c48.667 98 114 149.333 196 154h8c50 0 112.667 -23.333 188 -70c29.333 -18.667 52.333 -28 69 -28c8.66699 0 15.667 4 21 12l55 89l169 -112l-50 -82c-52 -66.667 -112.667 -100.334 -182 -101.001
c-2 -0.666992 -3.66699 -1 -5 -1c-67.333 0 -129.333 18 -186 54c-40.667 25.333 -62.667 38.333 -66 39h-2c-7.33301 0 -48.333 -38 -123 -114z" />
    <glyph glyph-name="Odieresis" unicode="&#xd6;" 
d="M983 381c0 -288 -144 -432.333 -432 -433c-287.333 0 -431 144.333 -431 433v1200c0 288 143.667 432 431 432c288 0 432 -144 432 -432v-1200zM650 1581c0 74.667 -32.667 112.333 -98 113h-2c-64.667 0 -97 -37.667 -97 -113v-1200c0 -75.333 32.667 -113 98 -113
c66 0 99 37.667 99 113v1200zM207 2301h292v-282h-292v282zM603 2301h293v-282h-293v282z" />
    <glyph glyph-name="multiply" unicode="&#xd7;" horiz-adv-x="1111" 
d="M556 785l-203 -203l-197 197l204 203l-203 203l196 196l203 -203l203 203l196 -197l-203 -202l203 -203l-196 -196z" />
    <glyph glyph-name="Oslash" unicode="&#xd8;" horiz-adv-x="1103" 
d="M469 305c12.667 -24.667 40 -37 82 -37c66 0 99 37.667 99 113v670zM453 1027l158 654c-10 8.66699 -29.667 13 -59 13h-2c-64.667 0 -97 -37.667 -97 -113v-554zM860 1917c82 -66.667 122.999 -178.667 122.999 -336v-1200c0 -288 -144 -432.333 -432 -433
c-73.333 0 -127.666 6.33301 -162.999 19l-47 -193h-191l70 292c-66.667 67.333 -100 172.333 -100 315v1200c0 288 143.667 432 431 432c61.333 0 107 -4.33301 137 -13l29 121h192z" />
    <glyph glyph-name="Ugrave" unicode="&#xd9;" 
d="M983 381c0 -288 -144 -432.333 -432 -433c-287.333 0 -431 144.333 -431 433v1601h333v-1601c0 -75.333 32.667 -113 98 -113c66 0 99 37.667 99 113v1601h333v-1601zM196 2311h258l318 -293h-286l-290 188v105z" />
    <glyph glyph-name="Uacute" unicode="&#xda;" 
d="M983 381c0 -288 -144 -432.333 -432 -433c-287.333 0 -431 144.333 -431 433v1601h333v-1601c0 -75.333 32.667 -113 98 -113c66 0 99 37.667 99 113v1601h333v-1601zM907 2206l-290 -188h-286l318 293h258v-105z" />
    <glyph glyph-name="Ucircumflex" unicode="&#xdb;" 
d="M992 381c0 -288 -144 -432.333 -432 -433c-287.333 0 -431 144.333 -431 433v1601h333v-1601c0 -75.333 32.667 -113 98 -113c66 0 99 37.667 99 113v1601h333v-1601zM120 2019l296 292h288l299 -292h-316l-127 87l-126 -87h-314z" />
    <glyph glyph-name="Udieresis" unicode="&#xdc;" 
d="M983 381c0 -288 -144 -432.333 -432 -433c-287.333 0 -431 144.333 -431 433v1601h333v-1601c0 -75.333 32.667 -113 98 -113c66 0 99 37.667 99 113v1601h333v-1601zM207 2301h292v-282h-292v282zM603 2301h293v-282h-293v282z" />
    <glyph glyph-name="Yacute" unicode="&#xdd;" horiz-adv-x="1106" 
d="M412 1982l173 -684l173 684h352l-351 -1138l-7 -21v-843h-333v842l-8 22l-351 1138h352zM941 2206l-290 -188h-286l318 293h258v-105z" />
    <glyph glyph-name="Thorn" unicode="&#xde;" horiz-adv-x="1068" 
d="M463 1655h67c4.66699 0 11 -0.333008 19 -1h18c267.333 0 401 -144 401 -432v-295c0 -211.333 -95.333 -348.333 -286 -411c-46.667 -14.667 -113 -22 -199 -22h-20v-841h-333v2329h333v-327zM463 1336v-523.001h39c35.333 0 59 2.33301 71 7
c41.333 16.667 62 52.334 62 107.001v295c0 76 -32.667 114 -98 114h-74z" />
    <glyph glyph-name="germandbls" unicode="&#xdf;" horiz-adv-x="1103" 
d="M993 1254c0 -136 -45 -227.001 -135 -273.001c90 -45.333 135 -136.333 135 -273v-508c0 -287.333 -133.667 -431 -401 -431l-54 -2v320c81.333 0 122 37.667 122 113v508c0 54.667 -21 90.334 -63 107.001c-12 4.66699 -35.667 7 -71 7h-63v-842h-333v1570
c0 288 143.667 432 431 432c288 0 432 -144 432 -432v-296zM463 1141l63 -0.000976562c35.333 0 59 2.33301 71 7c42 16 63 51.333 63 106v296c0 74.667 -32.667 112.334 -98 113.001h-2c-64.667 0 -97 -37.667 -97 -113v-409z" />
    <glyph glyph-name="agrave" unicode="&#xe0;" horiz-adv-x="1091" 
d="M992 616l95 -636h-336l-55 368h-245l-56 -368h-335l95 633l203 1136h432zM653 634l-80 531l-80 -531h160zM218 2078h258l318 -293h-286l-290 188v105z" />
    <glyph glyph-name="aacute" unicode="&#xe1;" horiz-adv-x="1091" 
d="M992 616l95 -636h-336l-55 368h-245l-56 -368h-335l95 633l203 1136h432zM653 634l-80 531l-80 -531h160zM929 1973l-290 -188h-286l318 293h258v-105z" />
    <glyph glyph-name="acircumflex" unicode="&#xe2;" horiz-adv-x="1091" 
d="M992 616l95 -636h-336l-55 368h-245l-56 -368h-335l95 633l203 1136h432zM653 634l-80 531l-80 -531h160zM133 1786l296 292h288l299 -292h-316l-127 87l-126 -87h-314z" />
    <glyph glyph-name="atilde" unicode="&#xe3;" horiz-adv-x="1091" 
d="M992 616l95 -636h-336l-55 368h-245l-56 -368h-335l95 633l203 1136h432zM653 634l-80 531l-80 -531h160zM373 1759l-173.999 79l43 86c48.667 98 114 149.333 196 154h8c50 0 112.667 -23.333 188 -70c29.333 -18.667 52.333 -28 69 -28c8.66699 0 15.667 4 21 12l55 89
l169 -112l-50 -82c-46.667 -74.667 -106.334 -114 -179.001 -118h-8c-50 0 -112 23.333 -186 70c-40.667 25.333 -62.667 38.333 -66 39h-2c-7.33301 0 -35.333 -39.667 -84 -119z" />
    <glyph glyph-name="adieresis" unicode="&#xe4;" horiz-adv-x="1091" 
d="M992 616l95 -636h-336l-55 368h-245l-56 -368h-335l95 633l203 1136h432zM653 634l-80 531l-80 -531h160zM229 2068h292v-282h-292v282zM625 2068h293v-282h-293v282z" />
    <glyph glyph-name="aring" unicode="&#xe5;" horiz-adv-x="1147" 
d="M653 634l-80 531l-80 -531h160zM573 1921c-36.667 0 -55 -20 -55 -60c0 -40.667 18.333 -61 55 -61c37.333 0 56 20.333 56 61c0 40 -18.667 60 -56 60zM780 1749h10l202 -1133l95 -636h-336l-55 368h-245l-56 -368h-335l95 633l203 1136h9
c-11.333 15.333 -17 52.666 -17 111.999c0 145.333 74.333 218 223 218c149.333 0 224 -72.667 224 -218c0 -59.333 -5.66699 -96.666 -17 -111.999z" />
    <glyph glyph-name="ae" unicode="&#xe6;" horiz-adv-x="1621" 
d="M555 348h-104l-56 -368h-335l95 633l203 1136h981v-286h-451v-455h388v-286h-388v-456h451v-286h-784v368zM555 634v650l-62 -650h62z" />
    <glyph glyph-name="ccedilla" unicode="&#xe7;" horiz-adv-x="1093" 
d="M414 -35c-196 29.333 -294.004 153.001 -294.004 371.001v1057c0 256 143.667 384 431 384c288 0 432 -128 432 -384v-252h-333v252c0 64.667 -32.667 97.334 -98 98.001c-66 0 -99 -32.667 -99 -98v-1057c0 -64.667 32.667 -97 98 -97c66 0 99 32.333 99 97v253h333
v-253c0 -253.333 -135.667 -381 -407 -383l-22 -45c10.667 22.667 30.334 34 59.001 34c10.667 0 22.334 -1.33301 35.001 -4c44.667 -10.667 67 -39.334 67 -86.001v-107c0 -68.667 -41.667 -106.334 -125 -113.001c-10.667 -1.33301 -23 -2 -37 -2
c-7.33301 0 -14.666 0.333008 -21.999 1c-94.667 2.66699 -142 40.667 -142 114v49l130 -1c16.667 -34.667 31 -52 43 -52c12.667 0 23.334 17.333 32.001 52c4.66699 18 7 32 7 42c0 12.667 -3.66699 19 -11 19c-9.33301 0 -24 -9.66699 -44 -29l-159 27z" />
    <glyph glyph-name="egrave" unicode="&#xe8;" horiz-adv-x="924" 
d="M130 1749h784v-286h-451v-455h388v-286h-388v-456h451v-286h-784v1769zM166 2078h258l318 -293h-286l-290 188v105z" />
    <glyph glyph-name="eacute" unicode="&#xe9;" horiz-adv-x="924" 
d="M130 1749h784v-286h-451v-455h388v-286h-388v-456h451v-286h-784v1769zM878 1973l-290 -188h-286l318 293h258v-105z" />
    <glyph glyph-name="ecircumflex" unicode="&#xea;" horiz-adv-x="924" 
d="M157 1749h784v-286h-451v-455h388v-286h-388v-456h451v-286h-784v1769zM108 1786l296 292h288l299 -292h-316l-127 87l-126 -87h-314z" />
    <glyph glyph-name="edieresis" unicode="&#xeb;" horiz-adv-x="924" 
d="M130 1749h784v-286h-451v-455h388v-286h-388v-456h451v-286h-784v1769zM178 2068h292v-282h-292v282zM574 2068h293v-282h-293v282z" />
    <glyph glyph-name="igrave" unicode="&#xec;" horiz-adv-x="514" 
d="M135 1749h333v-1769h-333v1769zM-54 2078h258l318 -293h-286l-290 188v105z" />
    <glyph glyph-name="iacute" unicode="&#xed;" horiz-adv-x="514" 
d="M165 1749h333v-1769h-333v1769zM687 1973l-290 -188h-286l318 293h258v-105z" />
    <glyph glyph-name="icircumflex" unicode="&#xee;" horiz-adv-x="514" 
d="M163 1749h333v-1769h-333v1769zM-112 1786l296 292h288l299 -292h-316l-127 87l-126 -87h-314z" />
    <glyph glyph-name="idieresis" unicode="&#xef;" horiz-adv-x="514" 
d="M135 1749h333v-1769h-333v1769zM-43 2068h292v-282h-292v282zM353 2068h293v-282h-293v282z" />
    <glyph glyph-name="eth" unicode="&#xf0;" horiz-adv-x="1103" 
d="M361 1297l-166.999 198l195 164c-24.667 15.333 -80.334 39.666 -167.001 72.999l81 259c155.333 -45.333 263.333 -89.666 324 -132.999l172 145l166 -198l-150 -126c112 -148.667 168 -357.667 168 -627v-639c0 -288.667 -143.667 -433 -431 -433
c-288 0 -432 144.333 -432 433v365c0 274.667 125.333 412 376 412c76.667 0 128 -10.333 154 -31c0 130 -25.667 235.667 -77 317zM453.001 413c0 -75.333 32.999 -113 98.999 -113c65.333 0 98 37.667 98 113v365c0 73.333 -25.333 111 -76 113
c-9.33301 0.666992 -18 1 -26 1c-31.333 0 -52.666 -2.66699 -63.999 -8c-20.667 -8.66699 -31 -44 -31 -106v-365z" />
    <glyph glyph-name="ntilde" unicode="&#xf1;" horiz-adv-x="1073" 
d="M130 1749h328l223 -834v830l312 4v-1769h-328l-213 802v-802h-322v1769zM361 1753l-173.999 85l43 86c48.667 98 114 149.333 196 154h8c50 0 112.667 -23.333 188 -70c29.333 -18.667 52.333 -28 69 -28c8.66699 0 15.667 4 21 12l55 89l169 -112l-50 -82
c-46.667 -74.667 -106.334 -114 -179.001 -118h-8c-50 0 -112 23.333 -186 70c-40.667 25.333 -62.667 38.333 -66 39h-2c-7.33301 0 -18 -13.667 -32 -41z" />
    <glyph glyph-name="ograve" unicode="&#xf2;" 
d="M983 336c0 -255.333 -144 -383 -432 -383c-287.333 0 -431 127.667 -431 383v1057c0 256 143.667 384 431 384c288 0 432 -128 432 -384v-1057zM650 1393c0 64.667 -32.667 97.333 -98 98c-66 0 -99 -32.667 -99 -98v-1057c0 -64.667 32.667 -97 98 -97
c66 0 99 32.333 99 97v1057zM196 2078h258l318 -293h-286l-290 188v105z" />
    <glyph glyph-name="oacute" unicode="&#xf3;" 
d="M983 336c0 -255.333 -144 -383 -432 -383c-287.333 0 -431 127.667 -431 383v1057c0 256 143.667 384 431 384c288 0 432 -128 432 -384v-1057zM650 1393c0 64.667 -32.667 97.333 -98 98c-66 0 -99 -32.667 -99 -98v-1057c0 -64.667 32.667 -97 98 -97
c66 0 99 32.333 99 97v1057zM907 1973l-290 -188h-286l318 293h258v-105z" />
    <glyph glyph-name="ocircumflex" unicode="&#xf4;" 
d="M992 336c0 -255.333 -144 -383 -432 -383c-287.333 0 -431 127.667 -431 383v1057c0 256 143.667 384 431 384c288 0 432 -128 432 -384v-1057zM659 1393c0 64.667 -32.667 97.333 -98 98c-66 0 -99 -32.667 -99 -98v-1057c0 -64.667 32.667 -97 98 -97
c66 0 99 32.333 99 97v1057zM120 1786l296 292h288l299 -292h-316l-127 87l-126 -87h-314z" />
    <glyph glyph-name="otilde" unicode="&#xf5;" 
d="M983 336c0 -255.333 -144 -383 -432 -383c-287.333 0 -431 127.667 -431 383v1057c0 256 143.667 384 431 384c288 0 432 -128 432 -384v-1057zM650 1393c0 64.667 -32.667 97.333 -98 98c-66 0 -99 -32.667 -99 -98v-1057c0 -64.667 32.667 -97 98 -97
c66 0 99 32.333 99 97v1057zM333 1760l-155.999 78l43 86c48.667 98 114 149.333 196 154h8c50 0 112.667 -23.333 188 -70c29.333 -18.667 52.333 -28 69 -28c8.66699 0 15.667 4 21 12l55 89l169 -112l-50 -82c-46.667 -74.667 -106.334 -114 -179.001 -118h-8
c-50 0 -112 23.333 -186 70c-40.667 25.333 -62.667 38.333 -66 39h-2c-7.33301 0 -41.333 -39.333 -102 -118z" />
    <glyph glyph-name="odieresis" unicode="&#xf6;" 
d="M983 336c0 -255.333 -144 -383 -432 -383c-287.333 0 -431 127.667 -431 383v1057c0 256 143.667 384 431 384c288 0 432 -128 432 -384v-1057zM650 1393c0 64.667 -32.667 97.333 -98 98c-66 0 -99 -32.667 -99 -98v-1057c0 -64.667 32.667 -97 98 -97
c66 0 99 32.333 99 97v1057zM207 2068h292v-282h-292v282zM603 2068h293v-282h-293v282z" />
    <glyph glyph-name="divide" unicode="&#xf7;" horiz-adv-x="1045" 
d="M975 1120v-274h-855v274h855zM360 1668h374v-364h-374v364zM360 664h374v-365h-374v365z" />
    <glyph glyph-name="oslash" unicode="&#xf8;" horiz-adv-x="1115" 
d="M492 253c10 -9.33301 31.667 -14 65 -14c66 0 99 32.333 99 97v453zM459 778l196 640c-6.66699 48 -39 72.333 -97 73c-66 0 -99 -32.667 -99 -98v-615zM917 1642c48 -58 72.002 -141 72.002 -249v-1057c0 -255.333 -144 -383 -432 -383
c-66.667 0 -117.334 4.66699 -152.001 14l-97 -315l-189 12l117 384c-73.333 59.333 -110 155.333 -110 288v1057c0 256 143.667 384 431 384c89.333 0 155.666 -9 198.999 -27l68 223l190 -12z" />
    <glyph glyph-name="ugrave" unicode="&#xf9;" 
d="M983 336c0 -255.333 -144 -383 -432 -383c-287.333 0 -431 127.667 -431 383v1413h333v-1413c0 -64.667 32.667 -97 98 -97c66 0 99 32.333 99 97v1413h333v-1413zM196 2078h258l318 -293h-286l-290 188v105z" />
    <glyph glyph-name="uacute" unicode="&#xfa;" 
d="M983 336c0 -255.333 -144 -383 -432 -383c-287.333 0 -431 127.667 -431 383v1413h333v-1413c0 -64.667 32.667 -97 98 -97c66 0 99 32.333 99 97v1413h333v-1413zM907 1973l-290 -188h-286l318 293h258v-105z" />
    <glyph glyph-name="ucircumflex" unicode="&#xfb;" 
d="M992 336c0 -255.333 -144 -383 -432 -383c-287.333 0 -431 127.667 -431 383v1413h333v-1413c0 -64.667 32.667 -97 98 -97c66 0 99 32.333 99 97v1413h333v-1413zM120 1786l296 292h288l299 -292h-316l-127 87l-126 -87h-314z" />
    <glyph glyph-name="udieresis" unicode="&#xfc;" 
d="M983 336c0 -255.333 -144 -383 -432 -383c-287.333 0 -431 127.667 -431 383v1413h333v-1413c0 -64.667 32.667 -97 98 -97c66 0 99 32.333 99 97v1413h333v-1413zM207 2068h292v-282h-292v282zM603 2068h293v-282h-293v282z" />
    <glyph glyph-name="yacute" unicode="&#xfd;" horiz-adv-x="1106" 
d="M413 1749l173 -604l173 604h353l-352 -1006l-7 -19v-744h-333v744l-8 18l-352 1007h353zM942 1973l-290 -188h-286l318 293h258v-105z" />
    <glyph glyph-name="thorn" unicode="&#xfe;" horiz-adv-x="1060" 
d="M463 1655h67c4.66699 0 11 -0.333008 19 -1h18c267.333 0 401 -144 401 -432v-295c0 -211.333 -95.333 -348.333 -286 -411c-46.667 -14.667 -113 -22 -199 -22h-20v-841h-333v2329h333v-327zM463 1336v-523.001h39c35.333 0 59 2.33301 71 7
c41.333 16.667 62 52.334 62 107.001v295c0 76 -32.667 114 -98 114h-74z" />
    <glyph glyph-name="ydieresis" unicode="&#xff;" horiz-adv-x="1106" 
d="M413 1749l173 -604l173 604h353l-352 -1006l-7 -19v-744h-333v744l-8 18l-352 1007h353zM242 2068h292v-282h-292v282zM638 2068h293v-282h-293v282z" />
    <glyph glyph-name="dotlessi" unicode="&#x131;" horiz-adv-x="564" 
d="M135 1749h333v-1769h-333v1769z" />
    <glyph glyph-name="circumflex" unicode="&#x2c6;" horiz-adv-x="1214" 
d="M166 1786l296 292h288l299 -292h-316l-127 87l-126 -87h-314z" />
    <glyph glyph-name="caron" unicode="&#x2c7;" horiz-adv-x="1214" 
d="M480 2078l126 -87l127 87h316l-299 -292h-288l-296 292h314z" />
    <glyph glyph-name="uni02C9" unicode="&#x2c9;" horiz-adv-x="949" 
d="M130 2056h689v-271h-689v271z" />
    <glyph glyph-name="breve" unicode="&#x2d8;" horiz-adv-x="1096" 
d="M967 2075c-98 -198.667 -241.333 -298 -430 -298h-8c-192 2.66699 -325 102 -399 298h268c20.667 -72 70 -108 148 -108h1c79.333 0 129 36 149 108h271z" />
    <glyph glyph-name="dotaccent" unicode="&#x2d9;" horiz-adv-x="553" 
d="M130 2073h293v-282h-293v282z" />
    <glyph glyph-name="ring" unicode="&#x2da;" horiz-adv-x="707" 
d="M577 1861c0 -146 -74.667 -219 -224 -219c-148.667 0 -223 73 -223 219c0 145.333 74.333 218 223 218c149.333 0 224 -72.667 224 -218zM353 1921c-36.667 0 -55 -20 -55 -60c0 -40.667 18.333 -61 55 -61c37.333 0 56 20.333 56 61c0 40 -18.667 60 -56 60z" />
    <glyph glyph-name="ogonek" unicode="&#x2db;" horiz-adv-x="1024" 
 />
    <glyph glyph-name="tilde" unicode="&#x2dc;" horiz-adv-x="1008" 
d="M310 1743l-179.999 95l43 86c48.667 98 114 149.333 196 154h8c50 0 112.667 -23.333 188 -70c29.333 -18.667 52.333 -28 69 -28c8.66699 0 15.667 4 21 12l55 89l169 -112l-50 -82c-46.667 -74.667 -106.334 -114 -179.001 -118h-8c-50 0 -112 23.333 -186 70
c-40.667 25.333 -62.667 38.333 -66 39h-2c-7.33301 0 -18 -13.667 -32 -41z" />
    <glyph glyph-name="hungarumlaut" unicode="&#x2dd;" horiz-adv-x="1024" 
 />
    <glyph glyph-name="endash" unicode="&#x2013;" horiz-adv-x="1222" 
d="M50 821v273h1110v-273h-1110z" />
    <glyph glyph-name="emdash" unicode="&#x2014;" horiz-adv-x="2098" 
d="M50 821v273h2013v-273h-2013z" />
    <glyph glyph-name="quoteleft" unicode="&#x2018;" horiz-adv-x="607" 
d="M530 1291h-400v310l112 382h233l-58 -327h113v-365z" />
    <glyph glyph-name="quoteright" unicode="&#x2019;" horiz-adv-x="660" 
d="M130 1983h400v-310l-112 -382h-233l58 327h-113v365z" />
    <glyph glyph-name="quotesinglbase" unicode="&#x201a;" horiz-adv-x="607" 
d="M120 345h401v-309l-113 -383h-232l58 327h-114v365z" />
    <glyph glyph-name="quotedblleft" unicode="&#x201c;" horiz-adv-x="1047" 
d="M530 1291h-400v310l112 382h233l-58 -327h113v-365zM1020 1291h-400v310l112 382h233l-58 -327h113v-365z" />
    <glyph glyph-name="quotedblright" unicode="&#x201d;" horiz-adv-x="1100" 
d="M130 1983h400v-310l-112 -382h-233l58 327h-113v365zM620 1983h400v-310l-112 -382h-233l58 327h-113v365z" />
    <glyph glyph-name="quotedblbase" unicode="&#x201e;" horiz-adv-x="1100" 
d="M130 346h400v-310l-112 -382h-233l58 327h-113v365zM620 346h400v-310l-112 -382h-233l58 327h-113v365z" />
    <glyph glyph-name="dagger" unicode="&#x2020;" horiz-adv-x="1504" 
d="M864 1475l366.001 50.001c10 1.33301 19.667 2 29 2c76.667 0 115 -53.667 115 -161c0 -108.667 -41 -163 -123 -163c-9.33301 0 -19 0.666992 -29 2l-354 52c16 -122 24 -283.333 24 -484v-160c0 -198 8.66699 -363 26 -495c1.33301 -9.33301 2 -18.333 2 -27
c0 -73.333 -55 -110.333 -165 -111c-112.667 0 -169 40 -169 120c0 7.33301 0.666992 15.333 2 24c18.667 124.667 28 279 28 463c0 34 -0.333008 68.667 -1 104c-0.666992 28.667 -1 57 -1 85c0 195.333 9 354.333 27 477l-366 -50c-10 -1.33301 -19.667 -2 -29 -2
c-76.667 0 -115.334 53.667 -116.001 161c0 108.667 41 163 123 163c9.33301 0 19 -0.666992 29 -2l355 -53l-50 372c-2 10 -3 19.667 -3 29c0 73.333 55.333 110 166 110c112 0 168 -39.333 168 -118c0 -8.66699 -0.666992 -17.334 -2 -26.001z" />
    <glyph glyph-name="daggerdbl" unicode="&#x2021;" horiz-adv-x="1504" 
d="M916 1837c-24.667 -168.667 -37.668 -285.333 -39.001 -350c57.333 1.33301 174.666 14 351.999 38c10 1.33301 19.667 2 29 2c76.667 0 115.334 -53.667 116.001 -161c0 -108.667 -41 -163 -123 -163c-9.33301 0 -19 0.666992 -29 2l-355 52l12 -85
c25.333 -20 38 -47.333 38 -82c0 -6 -0.333008 -12.333 -1 -19c-4 -26.667 -6 -55 -6 -85c0 -32.667 2.33301 -66.667 7 -102c1.33301 -7.33301 2 -14.333 2 -21c0 -36.667 -15 -64.334 -45 -83.001l-11 -71l366 49c10 1.33301 19.667 2 29 2
c76.667 0 115.334 -53.333 116.001 -160c0 -109.333 -41.667 -164 -125 -164c-8 0 -17 0.666992 -27 2l-355 53l50 -373c1.33301 -9.33301 2 -18.333 2 -27c0 -73.333 -55 -110.333 -165 -111c-112.667 0 -169 40 -169 120c0 7.33301 0.666992 15.333 2 24l53 362l-365 -49
c-10.667 -2 -21 -3 -31 -3c-76 0 -114 53.667 -114 161c0 108.667 41 163 123 163c8.66699 0 18 -0.666992 28 -2l355 -52l-12 85c-25.333 20 -38 47.667 -38 83c0 6 0.333008 12.333 1 19c4 26.667 6 54.667 6 84c0 32.667 -2.33301 66.667 -7 102
c-1.33301 7.33301 -2 14.333 -2 21c0 36.667 15 64.334 45 83.001l11 72l-366 -50c-10 -1.33301 -19.667 -2 -29 -2c-76.667 0 -115 53.667 -115 161c0 108.667 41 163 123 163c8.66699 0 18 -0.666992 28 -2l355 -53l-50 373c-1.33301 10 -2 19 -2 27c0 74 55 111 165 111
c112.667 0 169 -40 169 -120c0 -7.33301 -0.666992 -15.333 -2 -24z" />
    <glyph glyph-name="bullet" unicode="&#x2022;" horiz-adv-x="1037" 
d="M794 1254c75.333 -75.333 113 -165.666 113 -270.999c0 -104.667 -37.333 -194.334 -112 -269.001c-76 -76 -168.333 -114 -277 -114c-108 0 -200 38 -276 114c-74.667 74.667 -112 164.334 -112 269.001c0 105.333 37.667 195.666 113 270.999s167 113 275 113
c108.667 0 200.667 -37.667 276 -113z" />
    <glyph glyph-name="ellipsis" unicode="&#x2026;" horiz-adv-x="2048" 
d="M120 345h375v-365h-375v365zM803 345h375v-365h-375v365zM1486 345h375v-365h-375v365z" />
    <glyph glyph-name="guilsinglleft" unicode="&#x2039;" horiz-adv-x="874" 
d="M744 1171l-215 -182l215 -176v-382l-614 571l614 560v-391z" />
    <glyph glyph-name="guilsinglright" unicode="&#x203a;" horiz-adv-x="874" 
d="M130 1562l614 -560l-614 -571v382l215 176l-215 182v391z" />
    <glyph glyph-name="fraction" unicode="&#x2044;" horiz-adv-x="409" 
d="M681 1983l-736 -2003h-228l737 2003h227z" />
    <glyph glyph-name="fraction" unicode="&#x2215;" horiz-adv-x="409" 
d="M681 1983l-736 -2003h-228l737 2003h227z" />
    <glyph glyph-name="franc" unicode="&#x20a3;" horiz-adv-x="1013" 
d="M169 616v1366h784v-319h-451v-522h388v-320h-388v-205h186v-251h-186v-385h-333v385h-119v251h119z" />
    <glyph glyph-name="lira" unicode="&#x20a4;" horiz-adv-x="1175" 
d="M252 1255v325.999c0 288.667 144 433 432 433c287.333 0 431 -144.333 431 -433v-283h-333v283c0 75.333 -32.667 113 -98 113h-2c-64.667 0 -97 -37.667 -97 -113v-326h332v-199h-332v-118h332v-199h-332v-187c0 -121.333 -15.333 -205.666 -46 -252.999h498v-319h-977
v319h94c65.333 0 98 38 98 114v326h-192v199h192v118h-192v199h192z" />
    <glyph glyph-name="peseta" unicode="&#x20a7;" horiz-adv-x="2225" 
d="M435 1663v-522.001h33c31.333 0 52 2 62 6c36.667 16.667 55 52.334 55 107.001v295c0 76 -28.333 114 -85 114h-65zM890 1463v-209.001c0 -211.333 -86.333 -348 -259 -410c-42 -15.333 -102 -23 -180 -23h-16v-841h-305v2002l396 -1
c182.667 0 295.334 -77.333 338.001 -232h729v-14c43.333 28 124.666 42 243.999 42c288 0 432 -128 432 -384v-252h-333v252c0 64.667 -32.667 97.334 -98 98.001c-66 0 -99 -32.667 -99 -98v-156c0 -70.667 85 -159.667 255 -267c183.333 -114.667 275 -253 275 -415v-219
c0 -255.333 -143.667 -383 -431 -383c-288 0 -432 127.667 -432 383v253h333v-253c0 -64.667 33 -97 99 -97c65.333 0 98 32.333 98 97v197c0 77.333 -84.333 169.333 -253 276c-184.667 116 -277 256.667 -277 422v162c0 32.667 1 56 3 70h-81v-1483h-333v1483h-105z" />
    <glyph glyph-name="Euro" unicode="&#x20ac;" horiz-adv-x="1144" 
d="M171 1239v342c0 288.667 143.667 433 431 433c288 0 432 -144.333 432 -433v-283h-333v283c0 75.333 -32.667 113 -98 113h-2c-64.667 0 -97 -37.667 -97 -113v-342h382v-198h-382v-120h382v-198h-382v-342c0 -75.333 32.667 -113 98 -113c66 0 99 37.667 99 113v284h333
v-284c0 -288 -144 -432 -432 -432c-287.333 0 -431 144 -431 432v342h-141v198h141v120h-141v198h141z" />
    <glyph glyph-name="afii61352" unicode="&#x2116;" horiz-adv-x="1850" 
d="M130 1982h329l222 -944v939l312 5v-2002h-329l-212 907v-907h-322v2002zM1780 1110c0 -158.667 -98 -238 -294 -238c-195.333 0 -293 79.333 -293 238v634c0 158.667 97.667 238 293 238c196 0 294 -79.333 294 -238v-634zM1543 1744c0 33.333 -18.667 50.333 -56 51
c-38 0 -57 -17 -57 -51v-634c0 -34 18.667 -51 56 -51c38 0 57 17 57 51v634zM1203 486v215h566v-215h-566z" />
    <glyph glyph-name="trademark" unicode="&#x2122;" horiz-adv-x="1158" 
d="M476 1749v-152h-119v-673h-178v673h-119v152h416zM781 1284l128 466h173v-825h-172v256l-63 -256h-128l-67 262v-262h-173v825h172z" />
    <glyph glyph-name="partialdiff" unicode="&#x2202;" horiz-adv-x="1103" 
d="M650 1159c0 272 -143 463 -429 573l82 259c453.333 -133.333 680 -446.333 680 -939v-639c0 -288.667 -144 -433 -432 -433c-287.333 0 -431 144.333 -431 433v365c0 274.667 125 412 375 412c77.333 0 129 -10.333 155 -31zM453 413c0 -75.333 33 -113 99 -113
c65.333 0 98 37.667 98 113v365c0 73.333 -25.667 111 -77 113c-9.33301 0.666992 -18 1 -26 1c-30.667 0 -51.667 -2.66699 -63 -8c-20.667 -8.66699 -31 -44 -31 -106v-365z" />
    <glyph glyph-name="Delta" unicode="&#x2206;" horiz-adv-x="1081" 
 />
    <glyph glyph-name="product" unicode="&#x220f;" horiz-adv-x="1515" 
 />
    <glyph glyph-name="summation" unicode="&#x2211;" horiz-adv-x="1206" 
 />
    <glyph glyph-name="minus" unicode="&#x2212;" horiz-adv-x="1095" 
d="M975 1120v-274h-855v274h855z" />
    <glyph glyph-name="radical" unicode="&#x221a;" horiz-adv-x="1014" 
 />
    <glyph glyph-name="infinity" unicode="&#x221e;" horiz-adv-x="1014" 
 />
    <glyph glyph-name="integral" unicode="&#x222b;" horiz-adv-x="665" 
 />
    <glyph glyph-name="approxequal" unicode="&#x2248;" horiz-adv-x="1100" 
d="M307 904l-207.002 135.002l63 97c70.667 110 155.334 165 254.001 165h11c64.667 -2.66699 144 -39.334 238 -110.001c42 -31.333 74.333 -47 97 -47c11.333 0 21 5 29 15l79 99l192 -153l-73 -92c-64.667 -82 -139.667 -123 -225 -123h-13
c-64.667 2.66699 -144 39.667 -238 111c-49.333 37.333 -77.666 56.666 -84.999 57.999h-3c-12.667 0 -29.667 -16.333 -51 -49zM306.998 488.002l-207.002 135.002l63 97c70.667 110 155.334 165 254.001 165h11c64.667 -2.66699 144 -39.334 238 -110.001
c42 -31.333 74.333 -47 97 -47c11.333 0 21 5 29 15l79 99l192 -153l-73 -92c-64.667 -82 -139.667 -123 -225 -123h-13c-64.667 2.66699 -144 39.667 -238 111c-49.333 37.333 -77.666 56.666 -84.999 57.999h-3c-12.667 0 -29.667 -16.333 -51 -49z" />
    <glyph glyph-name="lessequal" unicode="&#x2264;" horiz-adv-x="1047" 
d="M120 1089l857 480v-323l-567 -310l567 -300v-323l-857 465v311zM975 254v-274h-855v274h855z" />
    <glyph glyph-name="greaterequal" unicode="&#x2265;" horiz-adv-x="1047" 
d="M977 778l-857 -465v323l567 300l-567 310v323l857 -480v-311zM975 254v-274h-855v274h855z" />
    <glyph glyph-name="uniF001" unicode="&#xf001;" horiz-adv-x="1472" 
d="M130 1749h784v-286h-451v-455h388v-286h-388v-742h-333v1769zM1059 1749h333v-1769h-333v1769z" />
    <glyph glyph-name="uniF001" unicode="&#xfb01;" horiz-adv-x="1472" 
d="M130 1749h784v-286h-451v-455h388v-286h-388v-742h-333v1769zM1059 1749h333v-1769h-333v1769z" />
    <glyph glyph-name="uniF002" unicode="&#xf002;" horiz-adv-x="1848" 
d="M130 1749h784v-286h-451v-455h388v-286h-388v-742h-333v1769zM1054 -20v1769h333v-1483h451v-286h-784z" />
    <glyph glyph-name="uniF002" unicode="&#xfb02;" horiz-adv-x="1848" 
d="M130 1749h784v-286h-451v-455h388v-286h-388v-742h-333v1769zM1054 -20v1769h333v-1483h451v-286h-784z" />
    <glyph glyph-name=".null" horiz-adv-x="0" 
 />
    <glyph glyph-name="nonmarkingreturn" horiz-adv-x="508" 
 />
    </font>
</defs>
</svg>
